<svg xmlns="http://www.w3.org/2000/svg" width="585" height="480" viewBox="0 0 585 480">
<g>
<path d="M 0.04 469.75 C0.02,475.98 0.30,479.21 1.22,480.00 L 0.00 480.00 L 0.00 0.00 L 158.00 0.00 L 158.00 2.38 C158.00,3.69 158.67,6.36 159.49,8.32 C160.31,10.28 160.68,12.66 160.32,13.61 C159.87,14.78 160.03,15.10 160.84,14.60 C161.51,14.19 162.27,14.55 162.61,15.44 C163.29,17.21 165.00,17.56 165.00,15.93 C165.00,15.34 165.79,15.02 166.75,15.22 C168.40,15.57 172.00,12.61 172.00,10.91 C172.00,10.48 173.73,10.15 175.85,10.18 C177.97,10.21 180.65,9.72 181.82,9.10 C183.77,8.05 189.14,8.35 191.20,9.63 C192.06,10.15 202.06,7.57 205.00,6.07 C205.82,5.64 206.64,4.11 206.82,2.65 L 207.13 0.00 L 585.00 0.00 L 585.00 54.62 C585.00,44.26 584.94,44.00 582.75,44.03 C579.82,44.07 575.28,48.11 574.77,51.13 C574.39,53.35 574.31,53.31 573.62,50.50 C571.97,43.79 569.33,41.75 565.24,44.03 C561.78,45.96 561.27,49.61 563.76,54.67 C564.80,56.78 566.27,60.53 567.05,63.00 C567.82,65.47 568.88,67.97 569.40,68.55 C570.90,70.21 575.86,68.99 577.83,66.49 C579.16,64.79 580.32,64.34 582.31,64.72 L 585.00 65.23 L 585.00 468.00 C585.00,458.46 584.72,456.00 583.62,456.00 C581.82,456.00 577.35,468.33 576.29,476.25 L 575.79 480.00 L 2.36 480.00 C2.99,479.65 3.77,478.84 4.74,477.60 C6.29,475.63 6.97,475.40 8.56,476.30 C11.65,478.04 14.23,477.85 14.75,475.84 C15.02,474.83 15.97,474.00 16.87,473.99 C17.76,473.99 19.79,473.32 21.36,472.49 C22.94,471.67 25.05,471.00 26.04,471.00 C27.04,471.00 28.45,470.42 29.18,469.70 C29.91,468.99 33.01,467.85 36.07,467.17 C39.14,466.49 42.69,465.21 43.96,464.32 C45.23,463.43 47.89,462.56 49.88,462.40 C52.54,462.17 54.31,461.17 56.55,458.61 C58.78,456.06 59.98,455.38 61.05,456.05 C63.10,457.35 65.70,457.22 69.35,455.63 C71.08,454.88 75.54,453.03 79.25,451.52 C82.96,450.01 86.00,448.38 86.00,447.89 C86.00,447.40 87.55,447.00 89.44,447.00 C91.81,447.00 93.35,446.34 94.36,444.89 C95.34,443.50 96.29,443.07 97.17,443.62 C99.26,444.92 101.33,444.68 103.50,442.88 C104.60,441.96 107.07,440.89 109.00,440.49 C110.93,440.09 114.27,438.92 116.44,437.88 C118.60,436.85 121.12,436.00 122.03,436.00 C124.74,436.00 127.10,432.56 126.91,428.88 C126.82,427.02 127.05,424.76 127.43,423.86 C127.92,422.72 127.21,421.58 125.06,420.05 C123.38,418.85 122.00,417.16 122.00,416.30 C122.00,414.14 118.28,408.32 116.45,407.62 C114.36,406.82 110.87,412.73 111.40,416.19 C111.62,417.67 112.11,419.47 112.48,420.19 C112.85,420.91 112.53,420.75 111.77,419.83 C110.50,418.29 107.18,417.81 106.00,419.01 C104.52,420.50 98.24,424.74 96.62,425.34 C95.59,425.72 93.25,425.50 91.44,424.84 C88.80,423.89 87.81,423.91 86.54,424.97 C85.67,425.69 85.14,426.47 85.37,426.70 C85.60,426.93 84.67,428.24 83.31,429.60 C81.13,431.78 80.10,432.04 74.67,431.79 C69.86,431.56 68.56,431.80 68.79,432.87 C68.98,433.76 68.53,434.02 67.54,433.62 C66.69,433.28 65.32,432.73 64.50,432.39 C63.54,432.00 63.00,432.36 63.00,433.39 C63.00,434.28 62.55,435.00 62.00,435.00 C61.45,435.00 61.00,434.33 61.00,433.50 C61.00,431.30 58.85,431.66 55.00,434.50 C53.14,435.88 51.02,437.00 50.31,437.00 C48.51,437.00 48.67,438.01 50.75,439.71 C51.71,440.50 51.90,440.84 51.16,440.46 C49.27,439.49 42.16,442.92 41.46,445.14 C40.98,446.64 39.85,447.00 35.62,447.00 C32.56,447.00 29.57,447.61 28.44,448.47 C27.37,449.28 25.71,449.95 24.74,449.97 C23.77,449.99 22.19,450.40 21.24,450.88 C17.26,452.89 11.85,455.00 10.72,454.98 C10.05,454.97 7.38,455.99 4.79,457.23 L 0.08 459.50 ZM 343.00 431.50 C346.20,433.33 346.58,433.32 349.54,431.38 C351.05,430.39 352.00,430.20 352.00,430.88 C352.00,431.50 353.14,432.00 354.54,432.00 C357.35,432.00 361.55,428.69 360.63,427.20 C359.97,426.14 365.45,425.03 371.50,425.00 C373.70,425.00 376.71,424.36 378.18,423.59 C380.48,422.39 380.94,422.39 381.40,423.60 C382.06,425.31 386.91,425.39 389.09,423.72 C389.96,423.05 390.60,421.54 390.51,420.36 C390.36,418.30 391.15,417.85 399.00,415.48 C399.27,415.40 400.24,415.00 401.15,414.60 C402.05,414.19 403.40,413.95 404.15,414.05 C407.01,414.44 408.00,413.93 408.00,412.06 C408.00,409.25 409.71,408.57 416.91,408.53 L 423.32 408.50 L 424.44 404.50 C425.34,401.31 426.12,400.41 428.32,400.00 C429.95,399.71 431.57,398.48 432.30,397.00 C432.97,395.62 435.20,393.68 437.26,392.67 C439.32,391.66 441.00,390.48 441.00,390.06 C441.00,389.63 442.06,389.48 443.36,389.73 C445.16,390.07 445.90,389.63 446.47,387.84 C446.88,386.55 447.16,385.13 447.08,384.68 C446.87,383.35 451.39,380.02 452.75,380.50 C453.44,380.74 454.00,380.33 454.00,379.58 C454.00,378.83 454.85,377.17 455.89,375.89 C457.43,373.99 458.04,373.79 459.25,374.79 C460.44,375.78 460.97,375.74 461.92,374.59 C462.87,373.46 462.74,372.95 461.31,372.15 C459.60,371.19 459.61,371.09 461.50,370.37 C462.60,369.95 464.13,368.99 464.90,368.23 C465.67,367.47 467.13,367.06 468.15,367.33 C469.59,367.71 470.03,367.22 470.12,365.16 C470.18,363.70 470.18,362.16 470.12,361.75 C470.05,361.34 470.45,361.00 471.00,361.00 C471.55,361.00 471.93,360.66 471.84,360.25 C471.67,359.45 472.68,356.40 473.88,354.09 C474.28,353.31 475.44,352.55 476.45,352.40 C478.71,352.07 480.00,350.17 479.27,348.27 C478.50,346.26 481.11,341.82 482.69,342.47 C483.41,342.76 484.67,343.27 485.50,343.61 C486.44,343.99 487.00,343.65 487.00,342.69 C487.00,341.85 486.44,340.98 485.77,340.76 C484.95,340.48 485.45,339.25 487.27,337.10 C489.27,334.72 489.84,333.19 489.39,331.41 C488.65,328.47 490.42,326.03 492.83,326.67 C495.78,327.44 497.66,322.72 496.12,318.44 C495.05,315.50 495.11,314.17 496.51,309.98 C497.42,307.24 498.77,305.00 499.52,305.00 C501.59,305.00 502.33,303.10 500.92,301.40 C500.23,300.57 500.08,299.97 500.58,300.06 C503.09,300.54 504.00,299.74 504.00,297.06 C504.00,295.44 503.53,293.83 502.96,293.47 C502.39,293.12 502.18,292.02 502.49,291.03 C502.80,290.04 503.24,287.71 503.45,285.86 C503.66,284.01 504.42,277.58 505.13,271.57 C506.14,263.05 506.15,260.55 505.21,260.24 C504.54,260.01 504.00,258.74 504.00,257.40 C504.00,255.60 504.92,254.53 507.50,253.30 C512.40,250.96 512.40,247.07 507.50,244.43 C505.08,243.13 504.00,241.84 504.00,240.27 C504.00,239.02 504.45,238.00 505.00,238.00 C505.55,238.00 506.00,235.98 506.00,233.50 C506.00,231.02 505.61,229.00 505.13,229.00 C504.65,229.00 504.31,226.28 504.38,222.96 C504.44,219.64 504.23,216.15 503.90,215.21 C503.56,214.27 503.65,212.24 504.09,210.69 C504.95,207.70 504.31,204.69 503.00,205.50 C501.91,206.17 501.22,204.01 501.56,201.00 C501.71,199.62 501.87,198.14 501.92,197.69 C501.96,197.25 502.45,197.16 503.00,197.50 C503.58,197.86 504.00,196.84 504.00,195.06 C504.00,192.32 503.68,192.00 500.97,192.00 C497.51,192.00 497.30,191.60 496.61,183.75 C496.15,178.57 496.30,177.99 498.05,177.88 C501.41,177.66 501.87,177.53 502.91,176.49 C503.72,175.68 504.93,167.87 505.27,161.32 C505.31,160.68 506.05,160.15 506.92,160.15 C511.77,160.14 512.51,159.42 512.25,154.96 C512.12,152.57 511.65,150.37 511.22,150.06 C510.79,149.75 510.39,148.71 510.34,147.75 C510.29,146.79 510.19,145.61 510.12,145.14 C509.97,144.10 506.90,143.90 492.25,143.98 C483.39,144.02 474.06,143.39 473.36,142.70 C472.92,142.25 472.55,140.91 472.53,139.71 C472.51,138.41 471.76,137.39 470.65,137.18 C468.49,136.75 463.07,131.09 463.03,129.20 C463.01,128.48 461.67,127.43 460.04,126.86 C458.41,126.30 456.82,125.01 456.50,124.01 C456.18,123.00 454.39,121.01 452.51,119.57 C450.63,118.14 448.48,115.74 447.73,114.24 C446.98,112.73 445.86,111.60 445.24,111.73 C444.62,111.86 443.20,110.73 442.08,109.23 C438.77,104.79 436.87,103.11 435.65,103.55 C435.02,103.78 433.38,103.08 432.00,102.00 C430.62,100.93 430.06,100.03 430.75,100.02 C432.24,100.00 432.46,96.00 430.97,96.00 C430.40,96.00 429.68,96.68 429.36,97.50 C428.87,98.78 428.17,98.66 424.77,96.75 C422.56,95.51 419.94,93.46 418.94,92.20 C417.94,90.93 415.89,89.67 414.38,89.39 C410.08,88.61 405.91,85.82 407.03,84.46 C408.32,82.91 407.21,82.00 404.03,82.00 C402.58,82.00 400.91,81.51 400.31,80.91 C399.71,80.31 396.78,79.74 393.81,79.66 C387.75,79.48 382.71,76.92 383.64,74.50 C383.96,73.67 383.83,72.97 383.36,72.92 C382.89,72.88 381.60,72.63 380.50,72.37 C379.40,72.11 373.10,71.74 366.50,71.55 C359.90,71.35 353.38,70.76 352.00,70.23 C350.55,69.66 348.55,69.61 347.25,70.10 C345.92,70.60 345.00,70.57 345.00,70.02 C345.00,69.51 343.42,68.79 341.49,68.43 C339.56,68.07 337.73,67.37 337.43,66.89 C336.68,65.67 329.64,65.76 328.40,67.00 C327.34,68.06 322.02,66.18 322.01,64.75 C321.99,63.29 314.26,63.99 312.95,65.57 C310.95,67.98 306.43,70.00 303.05,70.00 C301.37,70.00 300.00,70.35 300.00,70.77 C300.00,71.20 297.43,71.48 294.29,71.40 C291.15,71.32 287.38,71.60 285.92,72.02 C284.45,72.44 281.12,72.39 278.51,71.90 C273.49,70.96 268.64,71.62 269.57,73.11 C269.87,73.60 269.44,74.00 268.62,74.00 C267.79,74.00 266.81,74.50 266.43,75.11 C265.97,75.86 266.50,75.99 268.12,75.51 L 270.50 74.81 L 268.27 76.45 C263.64,79.85 259.11,81.12 255.35,80.09 C251.22,78.95 247.66,80.50 248.33,83.14 C248.95,85.55 247.98,86.46 243.35,87.81 C240.61,88.61 238.36,88.71 236.76,88.10 C233.50,86.86 231.75,88.14 232.16,91.48 C232.46,93.92 231.87,94.57 227.00,97.15 C223.98,98.76 221.05,100.66 220.50,101.37 C218.58,103.87 215.24,105.04 212.73,104.09 C209.33,102.79 207.76,104.18 207.61,108.64 C207.51,111.75 207.10,112.52 205.49,112.60 C200.58,112.85 200.00,113.09 200.00,114.88 C200.00,115.91 199.32,117.32 198.50,118.00 C197.68,118.68 197.00,119.85 197.00,120.59 C197.00,121.34 196.37,121.70 195.58,121.39 C193.99,120.78 192.02,123.80 192.72,125.75 C193.01,126.55 192.60,126.78 191.58,126.39 C190.71,126.06 190.00,126.29 190.00,126.91 C190.00,127.54 188.88,128.56 187.50,129.18 C186.11,129.82 185.00,131.16 185.00,132.23 C185.00,133.27 184.54,134.99 183.98,136.03 C183.17,137.55 182.48,137.75 180.56,137.02 C177.40,135.82 175.80,137.73 176.59,141.72 C177.35,145.50 174.84,150.60 171.76,151.56 C168.92,152.45 168.03,153.78 168.02,157.22 C167.99,161.56 165.06,166.83 162.97,166.28 C160.86,165.73 159.56,168.85 159.86,173.76 C160.09,177.44 158.71,180.55 155.52,183.54 C153.91,185.06 153.30,186.88 153.19,190.54 C153.11,193.27 152.49,198.34 151.83,201.81 L 150.61 208.11 L 147.31 207.67 C144.38,207.27 144.00,207.49 144.00,209.55 C144.00,210.83 144.40,212.13 144.89,212.43 C145.38,212.73 146.05,214.67 146.39,216.74 C147.11,221.17 147.11,221.19 146.40,227.00 C146.10,229.48 145.78,233.64 145.69,236.25 C145.59,238.86 145.23,241.00 144.88,241.00 C143.72,241.00 143.04,246.97 143.94,249.33 C144.44,250.65 144.45,252.28 143.96,253.06 C143.43,253.92 143.60,255.04 144.40,255.98 C146.09,257.96 146.25,266.82 144.75,274.93 C143.82,279.96 143.83,281.44 144.78,281.76 C145.45,281.98 146.01,283.14 146.02,284.33 C146.03,285.83 146.28,286.10 146.84,285.22 C149.03,281.78 152.27,297.46 151.81,309.21 C151.52,316.77 151.35,317.28 148.76,318.62 C147.25,319.40 145.79,320.03 145.51,320.02 C143.39,319.94 143.00,320.21 143.00,321.80 C143.00,322.79 143.50,324.10 144.11,324.71 C144.78,325.38 144.88,326.36 144.36,327.16 C143.89,327.90 143.41,331.65 143.30,335.50 C143.19,339.35 143.08,343.29 143.05,344.25 C142.86,351.09 144.32,353.84 147.84,353.30 C149.30,353.08 151.06,352.84 151.75,352.78 C152.44,352.72 153.00,352.29 153.00,351.83 C153.00,350.81 159.84,350.85 166.25,351.90 C169.17,352.38 171.00,352.31 171.00,351.72 C171.00,351.19 171.66,351.30 172.46,351.96 C173.26,352.63 174.45,352.84 175.11,352.43 C175.87,351.96 176.05,352.12 175.60,352.85 C175.20,353.48 175.28,354.00 175.77,354.00 C176.25,354.00 176.46,355.29 176.23,356.86 C175.81,359.73 178.25,362.03 179.53,359.96 C180.65,358.13 181.99,359.02 183.75,362.75 C184.72,364.81 185.96,366.51 186.51,366.53 C188.77,366.59 191.28,368.88 191.50,371.11 C191.64,372.43 191.80,374.09 191.87,374.80 C191.94,375.52 193.35,376.57 195.00,377.15 C196.65,377.73 198.00,378.62 198.00,379.14 C198.00,380.77 202.96,385.14 204.05,384.47 C205.41,383.63 207.98,385.81 209.10,388.76 C209.59,390.05 211.39,391.59 213.09,392.18 C215.80,393.12 216.13,393.62 215.64,396.04 C214.90,399.76 216.85,401.39 220.44,400.02 C221.91,399.46 222.88,399.39 222.59,399.86 C222.30,400.33 223.06,400.52 224.28,400.29 C225.78,400.01 227.85,401.02 230.66,403.43 C232.95,405.40 235.42,407.01 236.16,407.03 C237.90,407.07 241.65,409.91 241.00,410.69 C239.77,412.15 246.18,415.18 252.38,416.05 C260.78,417.24 263.00,418.38 263.00,421.49 C263.00,423.84 263.20,423.91 270.25,423.75 C274.24,423.66 279.08,423.88 281.00,424.25 C282.92,424.61 286.19,425.20 288.24,425.54 C290.30,425.89 292.24,426.58 292.55,427.09 C292.86,427.59 293.99,428.00 295.06,428.00 C296.13,428.00 297.00,428.36 297.00,428.80 C297.00,430.22 304.36,432.43 304.79,431.14 C305.00,430.51 307.11,430.00 309.48,430.00 C312.38,430.00 313.97,429.51 314.36,428.50 C315.09,426.61 319.38,426.54 320.92,428.40 C322.92,430.81 326.85,431.20 330.07,429.30 C332.51,427.86 333.39,427.77 335.01,428.77 C336.09,429.45 337.77,430.02 338.74,430.04 C339.71,430.05 341.62,430.71 343.00,431.50 ZM 0.01 268.25 C0.00,277.01 0.18,278.00 1.82,278.00 C2.82,278.00 4.62,276.88 5.81,275.50 C7.26,273.84 9.03,273.00 11.09,273.00 C14.41,273.00 21.00,270.31 21.00,268.95 C21.00,268.50 22.35,268.17 24.00,268.22 C25.65,268.27 27.83,267.56 28.83,266.65 C29.84,265.74 31.94,265.00 33.50,265.00 C35.06,265.00 37.09,264.32 38.01,263.50 C38.97,262.62 42.00,261.89 45.25,261.75 C48.32,261.61 50.64,261.31 50.41,261.08 C49.41,260.08 53.55,257.00 55.90,257.00 C58.74,256.99 65.00,253.60 65.00,252.07 C65.00,251.54 64.17,250.53 63.15,249.81 C62.14,249.09 60.73,246.70 60.02,244.50 C59.32,242.30 58.41,240.05 58.01,239.50 C57.61,238.95 57.00,237.34 56.66,235.92 C55.91,232.76 51.68,230.56 49.06,231.97 C46.75,233.20 45.84,235.53 46.56,238.38 C47.06,240.39 46.71,240.63 42.90,240.85 C37.56,241.17 35.16,242.45 33.94,245.65 C33.07,247.93 32.61,248.11 29.09,247.52 C24.86,246.80 17.42,249.74 16.34,252.55 C15.97,253.53 14.29,254.00 11.20,254.00 C8.10,254.00 5.56,254.73 3.32,256.25 L 0.01 258.50 ZM 506.05 478.43 C504.88,479.84 506.27,480.00 519.88,480.00 C532.65,480.00 535.00,479.77 535.00,478.50 C535.00,477.67 534.55,477.00 534.00,477.00 C533.45,477.00 533.00,475.88 533.00,474.50 C533.00,473.10 532.42,472.00 531.68,472.00 C530.95,472.00 529.72,470.54 528.93,468.75 C527.72,466.00 526.97,465.50 524.11,465.50 C519.79,465.50 518.11,467.82 519.59,471.73 C520.64,474.50 520.62,474.52 516.95,474.17 C513.14,473.80 508.34,475.68 506.05,478.43 Z" fill="rgb(254,254,254)"/>
<path d="M 353.50 348.38 C352.40,348.67 348.12,349.13 344.00,349.41 C321.44,350.90 310.90,339.15 310.82,312.41 C310.79,304.70 311.39,298.94 312.87,292.77 C318.70,268.37 334.27,237.32 353.80,211.14 C376.59,180.61 399.57,162.18 426.00,153.25 C435.80,149.94 437.43,149.69 450.43,149.47 C463.32,149.26 464.67,149.41 468.73,151.57 C471.50,153.04 473.73,153.62 474.80,153.14 C475.74,152.72 478.30,151.54 480.50,150.51 C485.99,147.95 501.14,147.72 503.59,150.16 C506.02,152.59 504.83,157.14 499.24,166.82 C484.22,192.80 465.53,211.00 453.87,211.00 C448.46,211.00 448.23,208.84 452.44,197.58 C457.49,184.10 457.25,174.53 451.74,169.93 C449.99,168.48 447.82,168.06 441.88,168.03 C435.15,168.00 433.46,168.40 427.31,171.48 C414.38,177.95 396.73,195.94 382.15,217.50 C371.80,232.81 369.48,236.76 362.21,251.46 C345.36,285.52 341.58,311.07 352.00,320.50 C353.79,322.12 355.57,322.49 361.35,322.45 C368.99,322.40 373.44,320.68 383.47,313.91 C392.53,307.80 408.60,291.12 413.03,283.22 C413.87,281.72 415.81,278.64 417.34,276.36 C419.19,273.61 420.31,270.37 420.69,266.73 L 421.26 261.23 L 416.73 258.58 C412.90,256.33 410.62,255.84 401.85,255.35 C389.26,254.64 387.92,253.69 391.23,247.80 C393.80,243.23 398.49,239.42 403.73,237.65 C406.32,236.77 415.81,236.28 434.06,236.09 C461.21,235.81 468.50,236.53 469.67,239.59 C469.98,240.40 469.31,243.31 468.16,246.06 C465.40,252.70 448.71,281.30 438.13,297.50 C433.46,304.65 427.96,313.65 425.90,317.50 C412.85,341.86 411.22,344.50 409.05,344.83 C405.75,345.32 399.58,338.39 398.42,332.89 C397.70,329.44 397.01,328.43 395.25,328.18 C394.01,328.00 393.00,327.49 393.00,327.05 C393.00,326.60 391.89,326.02 390.53,325.76 C389.17,325.50 388.29,325.66 388.58,326.12 C389.45,327.53 387.13,330.82 384.75,331.57 C383.51,331.96 381.51,333.34 380.30,334.64 C379.09,335.94 377.40,337.00 376.55,337.00 C375.70,337.00 375.00,337.37 375.00,337.83 C375.00,338.29 373.89,339.26 372.53,339.98 C370.63,341.00 369.74,341.03 368.65,340.12 C367.50,339.17 367.12,339.40 366.65,341.28 C366.10,343.45 360.38,346.53 353.50,348.38 ZM 173.48 343.38 C164.31,346.02 152.42,347.46 148.69,346.36 C145.66,345.47 144.85,341.54 146.60,336.23 C148.60,330.22 161.53,305.32 168.21,294.66 C185.35,267.26 201.44,253.49 209.46,259.35 C211.21,260.63 211.02,261.29 205.71,272.10 C197.53,288.77 196.62,291.90 196.57,303.56 C196.53,311.72 196.87,314.18 198.39,316.56 C201.47,321.41 205.27,325.06 209.50,327.26 C217.38,331.35 234.75,330.27 245.00,325.05 C246.93,324.07 249.76,322.66 251.31,321.93 C255.20,320.09 263.83,311.26 266.11,306.78 C268.91,301.30 271.00,292.36 271.00,285.90 C271.00,272.56 261.97,254.55 248.99,242.00 C245.86,238.98 242.90,235.75 242.40,234.84 C241.91,233.92 239.81,231.36 237.75,229.13 C235.69,226.91 234.00,224.81 234.00,224.47 C234.00,224.14 232.66,221.92 231.03,219.54 C224.21,209.63 221.69,196.16 224.90,186.70 C226.17,182.94 226.20,182.93 227.96,184.95 C230.49,187.88 231.55,187.48 229.51,184.38 C228.57,182.93 228.33,182.09 229.00,182.50 C229.90,183.06 229.94,182.76 229.15,181.28 C228.30,179.69 228.76,178.35 231.59,174.14 C233.52,171.28 236.98,167.57 239.29,165.88 C256.23,153.53 285.26,146.08 307.30,148.44 C312.99,149.05 314.00,149.45 314.00,151.08 C314.00,152.14 314.67,153.00 315.50,153.00 C316.33,153.00 317.00,152.32 317.00,151.50 C317.00,149.50 320.87,149.56 326.08,151.65 C330.02,153.23 330.39,153.21 334.47,151.23 C343.06,147.05 355.83,145.96 359.59,149.07 C361.86,150.96 361.26,154.09 357.01,162.55 C347.63,181.23 332.40,202.33 322.72,210.04 C318.68,213.25 316.94,214.00 313.49,214.00 C306.88,214.00 306.57,212.72 310.73,202.46 C313.94,194.52 314.37,192.46 314.43,184.37 C314.49,175.91 314.32,175.05 312.00,172.75 C308.22,168.98 302.82,166.01 299.75,166.00 C298.23,166.00 296.99,165.44 296.98,164.75 C296.97,164.06 296.16,162.47 295.19,161.21 L 293.43 158.92 L 293.27 161.11 C293.05,163.92 292.18,164.71 288.50,165.40 C281.06,166.80 279.21,167.35 274.73,169.52 C264.85,174.30 257.97,183.31 258.03,191.40 C258.11,201.04 263.52,210.55 278.68,227.66 C298.96,250.57 305.35,265.76 302.91,285.27 C301.19,298.94 297.22,307.93 288.27,318.35 C277.81,330.53 263.97,339.11 247.44,343.63 C238.23,346.15 236.03,346.35 217.50,346.42 C197.03,346.50 194.60,346.15 185.23,341.71 C183.44,340.87 180.95,341.22 173.48,343.38 ZM 379.43 330.87 C379.43,332.04 379.94,332.58 380.76,332.26 C382.20,331.71 381.97,329.82 380.40,329.30 C379.87,329.12 379.43,329.83 379.43,330.87 ZM 291.54 157.07 C291.86,157.58 292.54,158.00 293.06,158.00 C294.13,158.00 294.31,156.64 293.36,155.69 C292.44,154.77 290.86,155.96 291.54,157.07 ZM 414.73 319.40 C415.13,319.80 415.63,319.61 415.84,318.98 C416.05,318.34 415.72,317.32 415.11,316.71 C414.30,315.90 414.00,316.01 414.00,317.13 C414.00,317.98 414.33,318.99 414.73,319.40 ZM 401.00 317.44 C401.00,318.30 401.45,319.00 402.00,319.00 C402.55,319.00 403.00,318.58 403.00,318.06 C403.00,317.54 402.55,316.84 402.00,316.50 C401.45,316.16 401.00,316.58 401.00,317.44 Z" fill="rgb(69,69,69)"/>
<path d="M 304.07 167.19 C301.42,166.17 298.35,165.85 293.69,165.80 C289.65,165.76 286.81,165.85 284.35,166.22 C285.52,165.97 286.88,165.70 288.50,165.40 C292.18,164.71 293.05,163.92 293.27,161.11 L 293.43 158.92 L 295.19 161.21 C296.16,162.47 296.97,164.06 296.98,164.75 C296.99,165.44 298.23,166.00 299.75,166.00 C300.92,166.01 302.44,166.44 304.07,167.19 ZM 379.19 335.66 C379.58,335.35 379.96,335.00 380.30,334.64 C381.51,333.34 383.51,331.96 384.75,331.57 C387.13,330.82 389.45,327.53 388.58,326.12 C388.29,325.66 389.17,325.50 390.53,325.76 C391.89,326.02 393.00,326.60 393.00,327.05 C393.00,327.49 394.01,328.00 395.25,328.18 C395.92,328.28 396.43,328.48 396.85,328.89 C396.24,328.44 395.34,328.32 393.83,328.19 C390.79,327.94 389.09,328.67 383.97,332.44 C382.27,333.70 380.56,334.83 379.19,335.66 ZM 309.28 148.67 C315.23,148.85 318.18,149.27 321.76,150.31 C318.87,149.72 317.00,150.11 317.00,151.50 C317.00,152.32 316.33,153.00 315.50,153.00 C314.67,153.00 314.00,152.14 314.00,151.08 C314.00,149.66 313.24,149.17 309.28,148.67 ZM 225.90 184.07 C227.03,181.28 228.67,178.43 231.01,174.98 C231.15,174.77 231.30,174.57 231.44,174.36 C228.74,178.40 228.31,179.72 229.15,181.28 C229.94,182.76 229.90,183.06 229.00,182.50 C228.33,182.09 228.57,182.93 229.51,184.38 C231.55,187.48 230.49,187.88 227.96,184.95 C226.81,183.63 226.40,183.18 225.90,184.07 ZM 362.89 344.71 C365.00,343.51 366.39,342.29 366.65,341.28 C367.12,339.40 367.50,339.17 368.65,340.12 C369.39,340.73 370.03,340.92 370.95,340.67 C368.67,341.91 365.73,343.38 362.89,344.71 ZM 379.43 330.87 C379.43,329.83 379.87,329.12 380.40,329.30 C381.97,329.82 382.20,331.71 380.76,332.26 C379.94,332.58 379.43,332.04 379.43,330.87 ZM 291.54 157.07 C290.86,155.96 292.44,154.77 293.36,155.69 C294.31,156.64 294.13,158.00 293.06,158.00 C292.54,158.00 291.86,157.58 291.54,157.07 ZM 414.73 319.40 C414.33,318.99 414.00,317.98 414.00,317.13 C414.00,316.01 414.30,315.90 415.11,316.71 C415.72,317.32 416.05,318.34 415.84,318.98 C415.63,319.61 415.13,319.80 414.73,319.40 ZM 246.78 161.15 C251.60,158.43 257.30,155.99 264.00,153.75 C272.84,150.80 278.09,149.46 285.53,148.90 C271.86,150.69 257.85,155.06 246.78,161.15 ZM 401.00 317.44 C401.00,316.58 401.45,316.16 402.00,316.50 C402.55,316.84 403.00,317.54 403.00,318.06 C403.00,318.58 402.55,319.00 402.00,319.00 C401.45,319.00 401.00,318.30 401.00,317.44 ZM 223.98 201.65 C224.94,207.86 227.36,214.21 231.03,219.54 C226.89,213.53 224.67,207.96 223.98,201.65 ZM 353.50 348.38 C354.61,348.08 355.69,347.75 356.73,347.40 C355.58,347.84 354.63,348.17 354.00,348.31 C353.69,348.38 353.23,348.46 352.64,348.55 C353.01,348.49 353.31,348.43 353.50,348.38 ZM 336.30 150.41 C339.67,148.97 343.69,147.99 347.48,147.56 C343.77,148.00 339.79,148.97 336.30,150.41 ZM 326.34 151.75 L 329.38 152.73 C328.58,152.61 327.67,152.28 326.34,151.75 ZM 312.60 173.36 C312.21,172.96 311.74,172.53 311.17,172.02 C310.57,171.46 309.99,170.95 309.43,170.49 C310.33,171.19 311.20,171.95 312.00,172.75 C312.22,172.96 312.41,173.17 312.60,173.36 ZM 374.78 338.30 C374.92,338.11 375.00,337.95 375.00,337.83 C375.00,337.56 375.24,337.33 375.60,337.17 C375.24,337.35 375.00,337.65 375.00,337.98 C375.00,338.06 374.92,338.16 374.78,338.30 ZM 313.96 192.39 C314.31,190.18 314.40,187.80 314.43,184.28 C314.43,184.00 314.43,183.72 314.43,183.46 C314.43,183.75 314.43,184.05 314.43,184.37 C314.40,187.84 314.31,190.20 313.96,192.39 Z" fill="rgb(92,89,91)"/>
<path d="M 343.00 431.50 C341.62,430.71 339.71,430.05 338.74,430.04 C337.77,430.02 336.09,429.45 335.01,428.77 C333.39,427.77 332.51,427.86 330.07,429.30 C326.85,431.20 322.92,430.81 320.92,428.40 C319.38,426.54 315.09,426.61 314.36,428.50 C313.97,429.51 312.38,430.00 309.48,430.00 C307.11,430.00 305.00,430.51 304.79,431.14 C304.36,432.43 297.00,430.22 297.00,428.80 C297.00,428.36 296.13,428.00 295.06,428.00 C293.99,428.00 292.86,427.59 292.55,427.09 C292.24,426.58 290.30,425.89 288.24,425.54 C286.19,425.20 282.92,424.61 281.00,424.25 C279.08,423.88 274.24,423.66 270.25,423.75 C263.20,423.91 263.00,423.84 263.00,421.49 C263.00,418.38 260.78,417.24 252.38,416.05 C246.18,415.18 239.77,412.15 241.00,410.69 C241.65,409.91 237.90,407.07 236.16,407.03 C235.42,407.01 232.95,405.40 230.66,403.43 C227.85,401.02 225.78,400.01 224.28,400.29 C223.06,400.52 222.30,400.33 222.59,399.86 C222.88,399.39 221.91,399.46 220.44,400.02 C216.85,401.39 214.90,399.76 215.64,396.04 C216.13,393.62 215.80,393.12 213.09,392.18 C211.39,391.59 209.59,390.05 209.10,388.76 C207.98,385.81 205.41,383.63 204.05,384.47 C202.96,385.14 198.00,380.77 198.00,379.14 C198.00,378.62 196.65,377.73 195.00,377.15 C193.35,376.57 191.94,375.52 191.87,374.80 C191.80,374.09 191.64,372.43 191.50,371.11 C191.28,368.88 188.77,366.59 186.51,366.53 C185.96,366.51 184.72,364.81 183.75,362.75 C181.99,359.02 180.65,358.13 179.53,359.96 C178.25,362.03 175.81,359.73 176.23,356.86 C176.46,355.29 176.25,354.00 175.77,354.00 C175.28,354.00 175.20,353.48 175.60,352.85 C176.05,352.12 175.87,351.96 175.11,352.43 C174.45,352.84 173.26,352.63 172.46,351.96 C171.66,351.30 171.00,351.19 171.00,351.72 C171.00,352.31 169.17,352.38 166.25,351.90 C159.84,350.85 153.00,350.81 153.00,351.83 C153.00,352.29 152.44,352.72 151.75,352.78 C151.06,352.84 149.30,353.08 147.84,353.30 C144.32,353.84 142.86,351.09 143.05,344.25 C143.08,343.29 143.19,339.35 143.30,335.50 C143.41,331.65 143.89,327.90 144.36,327.16 C144.88,326.36 144.78,325.38 144.11,324.71 C143.50,324.10 143.00,322.79 143.00,321.80 C143.00,320.21 143.39,319.94 145.51,320.02 C145.79,320.03 147.25,319.40 148.76,318.62 C151.35,317.28 151.52,316.77 151.81,309.21 C152.27,297.46 149.03,281.78 146.84,285.22 C146.28,286.10 146.03,285.83 146.02,284.33 C146.01,283.14 145.45,281.98 144.78,281.76 C143.83,281.44 143.82,279.96 144.75,274.93 C146.25,266.82 146.09,257.96 144.40,255.98 C143.60,255.04 143.43,253.92 143.96,253.06 C144.45,252.28 144.44,250.65 143.94,249.33 C143.04,246.97 143.72,241.00 144.88,241.00 C145.23,241.00 145.59,238.86 145.69,236.25 C145.78,233.64 146.10,229.48 146.40,227.00 C147.11,221.19 147.11,221.17 146.39,216.74 C146.05,214.67 145.38,212.73 144.89,212.43 C144.40,212.13 144.00,210.83 144.00,209.55 C144.00,207.49 144.38,207.27 147.31,207.67 L 150.61 208.11 L 151.83 201.81 C152.49,198.34 153.11,193.27 153.19,190.54 C153.30,186.88 153.91,185.06 155.52,183.54 C158.71,180.55 160.09,177.44 159.86,173.76 C159.56,168.85 160.86,165.73 162.97,166.28 C165.06,166.83 167.99,161.56 168.02,157.22 C168.03,153.78 168.92,152.45 171.76,151.56 C174.84,150.60 177.35,145.50 176.59,141.72 C175.80,137.73 177.40,135.82 180.56,137.02 C182.48,137.75 183.17,137.55 183.98,136.03 C184.54,134.99 185.00,133.27 185.00,132.23 C185.00,131.16 186.11,129.82 187.50,129.18 C188.88,128.56 190.00,127.54 190.00,126.91 C190.00,126.29 190.71,126.06 191.58,126.39 C192.60,126.78 193.01,126.55 192.72,125.75 C192.02,123.80 193.99,120.78 195.58,121.39 C196.37,121.70 197.00,121.34 197.00,120.59 C197.00,119.85 197.68,118.68 198.50,118.00 C199.32,117.32 200.00,115.91 200.00,114.88 C200.00,113.09 200.58,112.85 205.49,112.60 C207.10,112.52 207.51,111.75 207.61,108.64 C207.76,104.18 209.33,102.79 212.73,104.09 C215.24,105.04 218.58,103.87 220.50,101.37 C221.05,100.66 223.98,98.76 227.00,97.15 C231.87,94.57 232.46,93.92 232.16,91.48 C231.75,88.14 233.50,86.86 236.76,88.10 C238.36,88.71 240.61,88.61 243.35,87.81 C247.98,86.46 248.95,85.55 248.33,83.14 C247.66,80.50 251.22,78.95 255.35,80.09 C259.11,81.12 263.64,79.85 268.27,76.45 L 270.50 74.81 L 268.12 75.51 C266.50,75.99 265.97,75.86 266.43,75.11 C266.81,74.50 267.79,74.00 268.62,74.00 C269.44,74.00 269.87,73.60 269.57,73.11 C268.64,71.62 273.49,70.96 278.51,71.90 C281.12,72.39 284.45,72.44 285.92,72.02 C287.38,71.60 291.15,71.32 294.29,71.40 C297.43,71.48 300.00,71.20 300.00,70.77 C300.00,70.35 301.37,70.00 303.05,70.00 C306.43,70.00 310.95,67.98 312.95,65.57 C314.26,63.99 321.99,63.29 322.01,64.75 C322.02,66.18 327.34,68.06 328.40,67.00 C329.64,65.76 336.68,65.67 337.43,66.89 C337.73,67.37 339.56,68.07 341.49,68.43 C343.42,68.79 345.00,69.51 345.00,70.02 C345.00,70.57 345.92,70.60 347.25,70.10 C348.55,69.61 350.55,69.66 352.00,70.23 C353.38,70.76 359.90,71.35 366.50,71.55 C373.10,71.74 379.40,72.11 380.50,72.37 C381.60,72.63 382.89,72.88 383.36,72.92 C383.83,72.97 383.96,73.67 383.64,74.50 C382.71,76.92 387.75,79.48 393.81,79.66 C396.78,79.74 399.71,80.31 400.31,80.91 C400.91,81.51 402.58,82.00 404.03,82.00 C407.21,82.00 408.32,82.91 407.03,84.46 C405.91,85.82 410.08,88.61 414.38,89.39 C415.89,89.67 417.94,90.93 418.94,92.20 C419.94,93.46 422.56,95.51 424.77,96.75 C428.17,98.66 428.87,98.78 429.36,97.50 C429.68,96.68 430.40,96.00 430.97,96.00 C432.46,96.00 432.24,100.00 430.75,100.02 C430.06,100.03 430.62,100.93 432.00,102.00 C433.38,103.08 435.02,103.78 435.65,103.55 C436.87,103.11 438.77,104.79 442.08,109.23 C443.20,110.73 444.62,111.86 445.24,111.73 C445.86,111.60 446.98,112.73 447.73,114.24 C448.48,115.74 450.63,118.14 452.51,119.57 C454.39,121.01 456.18,123.00 456.50,124.01 C456.82,125.01 458.41,126.30 460.04,126.86 C461.67,127.43 463.01,128.48 463.03,129.20 C463.07,131.09 468.49,136.75 470.65,137.18 C471.76,137.39 472.51,138.41 472.53,139.71 C472.55,140.91 472.92,142.25 473.36,142.70 C474.06,143.39 483.39,144.02 492.25,143.98 C506.90,143.90 509.97,144.10 510.12,145.14 C510.19,145.61 510.29,146.79 510.34,147.75 C510.39,148.71 510.79,149.75 511.22,150.06 C511.65,150.37 512.12,152.57 512.25,154.96 C512.51,159.42 511.77,160.14 506.92,160.15 C506.05,160.15 505.31,160.68 505.27,161.32 C504.93,167.87 503.72,175.68 502.91,176.49 C501.87,177.53 501.41,177.66 498.05,177.88 C496.30,177.99 496.15,178.57 496.61,183.75 C497.30,191.60 497.51,192.00 500.97,192.00 C503.68,192.00 504.00,192.32 504.00,195.06 C504.00,196.84 503.58,197.86 503.00,197.50 C502.45,197.16 501.96,197.25 501.92,197.69 C501.87,198.14 501.71,199.62 501.56,201.00 C501.22,204.01 501.91,206.17 503.00,205.50 C504.31,204.69 504.95,207.70 504.09,210.69 C503.65,212.24 503.56,214.27 503.90,215.21 C504.23,216.15 504.44,219.64 504.38,222.96 C504.31,226.28 504.65,229.00 505.13,229.00 C505.61,229.00 506.00,231.02 506.00,233.50 C506.00,235.98 505.55,238.00 505.00,238.00 C504.49,238.00 504.07,238.87 504.01,239.98 C503.79,234.09 503.30,228.52 502.50,223.61 C499.76,206.69 493.71,184.64 490.98,181.65 C490.66,181.31 489.34,182.43 487.72,184.33 C491.68,179.06 495.57,173.17 499.24,166.82 C504.83,157.14 506.02,152.59 503.59,150.16 C501.14,147.72 485.99,147.95 480.50,150.51 C478.30,151.54 475.74,152.72 474.80,153.14 C474.65,153.21 474.48,153.25 474.28,153.28 C474.54,153.23 474.77,153.14 474.96,153.02 C478.50,150.84 448.17,117.51 432.00,105.80 C408.40,88.72 381.95,77.66 354.50,73.39 C342.36,71.50 313.95,71.23 302.00,72.89 C243.74,80.99 192.58,117.90 166.70,170.50 C154.22,195.86 148.96,218.44 148.77,247.50 C148.64,266.13 150.03,278.03 154.21,293.99 C156.57,303.00 157.64,307.20 159.19,307.38 C160.51,307.53 162.18,304.74 165.30,299.51 L 165.43 299.29 C158.45,311.28 148.35,330.97 146.60,336.23 C144.85,341.54 145.66,345.47 148.69,346.36 C152.42,347.46 164.31,346.02 173.48,343.38 C174.29,343.14 175.05,342.93 175.76,342.73 C175.67,343.30 177.18,346.04 179.31,349.15 C181.61,352.51 184.45,356.67 185.61,358.39 C188.61,362.83 212.30,386.55 217.31,390.12 C227.95,397.71 238.97,404.53 247.84,408.99 C267.38,418.82 292.29,425.45 315.00,426.85 C329.12,427.72 341.64,427.24 352.50,425.39 C393.17,418.48 424.28,402.72 452.00,375.00 C475.86,351.14 490.62,325.24 499.01,292.50 C502.78,277.78 504.59,257.93 504.03,240.75 C504.24,242.11 505.33,243.26 507.50,244.43 C512.40,247.07 512.40,250.96 507.50,253.30 C504.92,254.53 504.00,255.60 504.00,257.40 C504.00,258.74 504.54,260.01 505.21,260.24 C506.15,260.55 506.14,263.05 505.13,271.57 C504.42,277.58 503.66,284.01 503.45,285.86 C503.24,287.71 502.80,290.04 502.49,291.03 C502.18,292.02 502.39,293.12 502.96,293.47 C503.53,293.83 504.00,295.44 504.00,297.06 C504.00,299.74 503.09,300.54 500.58,300.06 C500.08,299.97 500.23,300.57 500.92,301.40 C502.33,303.10 501.59,305.00 499.52,305.00 C498.77,305.00 497.42,307.24 496.51,309.98 C495.11,314.17 495.05,315.50 496.12,318.44 C497.66,322.72 495.78,327.44 492.83,326.67 C490.42,326.03 488.65,328.47 489.39,331.41 C489.84,333.19 489.27,334.72 487.27,337.10 C485.45,339.25 484.95,340.48 485.77,340.76 C486.44,340.98 487.00,341.85 487.00,342.69 C487.00,343.65 486.44,343.99 485.50,343.61 C484.67,343.27 483.41,342.76 482.69,342.47 C481.11,341.82 478.50,346.26 479.27,348.27 C480.00,350.17 478.71,352.07 476.45,352.40 C475.44,352.55 474.28,353.31 473.88,354.09 C472.68,356.40 471.67,359.45 471.84,360.25 C471.93,360.66 471.55,361.00 471.00,361.00 C470.45,361.00 470.05,361.34 470.12,361.75 C470.18,362.16 470.18,363.70 470.12,365.16 C470.03,367.22 469.59,367.71 468.15,367.33 C467.13,367.06 465.67,367.47 464.90,368.23 C464.13,368.99 462.60,369.95 461.50,370.37 C459.61,371.09 459.60,371.19 461.31,372.15 C462.74,372.95 462.87,373.46 461.92,374.59 C460.97,375.74 460.44,375.78 459.25,374.79 C458.04,373.79 457.43,373.99 455.89,375.89 C454.85,377.17 454.00,378.83 454.00,379.58 C454.00,380.33 453.44,380.74 452.75,380.50 C451.39,380.02 446.87,383.35 447.08,384.68 C447.16,385.13 446.88,386.55 446.47,387.84 C445.90,389.63 445.16,390.07 443.36,389.73 C442.06,389.48 441.00,389.63 441.00,390.06 C441.00,390.48 439.32,391.66 437.26,392.67 C435.20,393.68 432.97,395.62 432.30,397.00 C431.57,398.48 429.95,399.71 428.32,400.00 C426.12,400.41 425.34,401.31 424.44,404.50 L 423.32 408.50 L 416.91 408.53 C409.71,408.57 408.00,409.25 408.00,412.06 C408.00,413.93 407.01,414.44 404.15,414.05 C403.40,413.95 402.05,414.19 401.15,414.60 C400.24,415.00 399.27,415.40 399.00,415.48 C391.15,417.85 390.36,418.30 390.51,420.36 C390.60,421.54 389.96,423.05 389.09,423.72 C386.91,425.39 382.06,425.31 381.40,423.60 C380.94,422.39 380.48,422.39 378.18,423.59 C376.71,424.36 373.70,425.00 371.50,425.00 C365.45,425.03 359.97,426.14 360.63,427.20 C361.55,428.69 357.35,432.00 354.54,432.00 C353.14,432.00 352.00,431.50 352.00,430.88 C352.00,430.20 351.05,430.39 349.54,431.38 C346.58,433.32 346.20,433.33 343.00,431.50 ZM 0.08 473.76 C0.35,477.58 1.34,477.78 3.44,474.78 C5.45,471.91 5.42,469.12 3.35,466.83 C1.03,464.27 0.23,464.51 0.04,468.64 L 0.08 459.50 L 4.79 457.23 C7.38,455.99 10.05,454.97 10.72,454.98 C11.85,455.00 17.26,452.89 21.24,450.88 C22.19,450.40 23.77,449.99 24.74,449.97 C25.71,449.95 27.37,449.28 28.44,448.47 C29.57,447.61 32.56,447.00 35.62,447.00 C39.85,447.00 40.98,446.64 41.46,445.14 C42.16,442.92 49.27,439.49 51.16,440.46 C51.90,440.84 51.71,440.50 50.75,439.71 C48.67,438.01 48.51,437.00 50.31,437.00 C51.02,437.00 53.14,435.88 55.00,434.50 C58.85,431.66 61.00,431.30 61.00,433.50 C61.00,434.33 61.45,435.00 62.00,435.00 C62.55,435.00 63.00,434.28 63.00,433.39 C63.00,432.36 63.54,432.00 64.50,432.39 C65.32,432.73 66.69,433.28 67.54,433.62 C68.53,434.02 68.98,433.76 68.79,432.87 C68.56,431.80 69.86,431.56 74.67,431.79 C80.10,432.04 81.13,431.78 83.31,429.60 C84.67,428.24 85.60,426.93 85.37,426.70 C85.14,426.47 85.67,425.69 86.54,424.97 C87.81,423.91 88.80,423.89 91.44,424.84 C93.25,425.50 95.59,425.72 96.62,425.34 C98.24,424.74 104.52,420.50 106.00,419.01 C107.18,417.81 110.50,418.29 111.77,419.83 C112.53,420.75 112.85,420.91 112.48,420.19 C112.11,419.47 111.62,417.67 111.40,416.19 C110.87,412.73 114.36,406.82 116.45,407.62 C118.28,408.32 122.00,414.14 122.00,416.30 C122.00,417.16 123.38,418.85 125.06,420.05 C127.21,421.58 127.92,422.72 127.43,423.86 C127.05,424.76 126.82,427.02 126.91,428.88 C127.10,432.56 124.74,436.00 122.03,436.00 C121.12,436.00 118.60,436.85 116.44,437.88 C114.27,438.92 110.93,440.09 109.00,440.49 C107.07,440.89 104.60,441.96 103.50,442.88 C101.33,444.68 99.26,444.92 97.17,443.62 C96.29,443.07 95.34,443.50 94.36,444.89 C93.35,446.34 91.81,447.00 89.44,447.00 C87.55,447.00 86.00,447.40 86.00,447.89 C86.00,448.38 82.96,450.01 79.25,451.52 C75.54,453.03 71.08,454.88 69.35,455.63 C65.70,457.22 63.10,457.35 61.05,456.05 C59.98,455.38 58.78,456.06 56.55,458.61 C54.31,461.17 52.54,462.17 49.88,462.40 C47.89,462.56 45.23,463.43 43.96,464.32 C42.69,465.21 39.14,466.49 36.07,467.17 C33.01,467.85 29.91,468.99 29.18,469.70 C28.45,470.42 27.04,471.00 26.04,471.00 C25.05,471.00 22.94,471.67 21.36,472.49 C19.79,473.32 17.76,473.99 16.87,473.99 C15.97,474.00 15.02,474.83 14.75,475.84 C14.23,477.85 11.65,478.04 8.56,476.30 C6.97,475.40 6.29,475.63 4.74,477.60 C3.77,478.84 2.99,479.65 2.36,480.00 L 1.22 480.00 C0.52,479.40 0.19,477.40 0.08,473.76 ZM 0.01 268.25 L 0.01 258.50 L 3.32 256.25 C5.56,254.73 8.10,254.00 11.20,254.00 C14.29,254.00 15.97,253.53 16.34,252.55 C17.42,249.74 24.86,246.80 29.09,247.52 C32.61,248.11 33.07,247.93 33.94,245.65 C35.16,242.45 37.56,241.17 42.90,240.85 C46.71,240.63 47.06,240.39 46.56,238.38 C45.84,235.53 46.75,233.20 49.06,231.97 C51.68,230.56 55.91,232.76 56.66,235.92 C57.00,237.34 57.61,238.95 58.01,239.50 C58.41,240.05 59.32,242.30 60.02,244.50 C60.73,246.70 62.14,249.09 63.15,249.81 C64.17,250.53 65.00,251.54 65.00,252.07 C65.00,253.60 58.74,256.99 55.90,257.00 C53.55,257.00 49.41,260.08 50.41,261.08 C50.64,261.31 48.32,261.61 45.25,261.75 C42.00,261.89 38.97,262.62 38.01,263.50 C37.09,264.32 35.06,265.00 33.50,265.00 C31.94,265.00 29.84,265.74 28.83,266.65 C27.83,267.56 25.65,268.27 24.00,268.22 C22.35,268.17 21.00,268.50 21.00,268.95 C21.00,270.31 14.41,273.00 11.09,273.00 C9.03,273.00 7.26,273.84 5.81,275.50 C4.62,276.88 2.82,278.00 1.82,278.00 C0.64,278.00 0.22,277.49 0.07,273.91 C0.34,275.31 1.31,275.29 2.80,273.80 C4.56,272.04 4.27,271.00 2.00,271.00 C0.01,271.35 0.01,269.95 0.01,268.25 ZM 162.61 15.44 C162.27,14.55 161.51,14.19 160.84,14.60 C160.03,15.10 159.87,14.78 160.32,13.61 C160.68,12.66 160.31,10.28 159.49,8.32 C158.67,6.36 158.00,3.69 158.00,2.38 L 158.00 0.00 L 207.13 0.00 L 206.82 2.65 C206.64,4.11 205.82,5.64 205.00,6.07 C202.06,7.57 192.06,10.15 191.20,9.63 C189.14,8.35 183.77,8.05 181.82,9.10 C180.65,9.72 177.97,10.21 175.85,10.18 C173.73,10.15 172.00,10.48 172.00,10.91 C172.00,12.61 168.40,15.57 166.75,15.22 C165.79,15.02 165.00,15.34 165.00,15.93 C165.00,17.56 163.29,17.21 162.61,15.44 ZM 8.61 471.75 C10.34,474.45 11.30,474.55 13.59,472.27 C14.55,471.31 16.35,470.66 17.59,470.83 C19.06,471.02 20.25,470.40 20.95,469.09 C21.80,467.50 22.68,467.19 24.97,467.64 C27.50,468.15 27.99,467.88 28.54,465.68 C29.11,463.42 29.45,463.25 31.52,464.19 C34.59,465.59 40.28,464.46 42.49,462.01 C44.05,460.29 44.10,459.65 42.97,456.78 C40.92,451.59 38.07,449.00 34.40,449.00 C29.95,449.00 27.73,451.31 29.15,454.44 C29.87,456.01 29.91,457.76 29.28,459.65 L 28.32 462.50 L 26.65 459.28 C23.92,454.02 21.83,453.48 13.92,456.03 C5.16,458.84 4.33,459.80 5.94,465.28 C6.62,467.60 7.82,470.51 8.61,471.75 ZM 569.40 68.55 C568.88,67.97 567.82,65.47 567.05,63.00 C566.27,60.53 564.80,56.78 563.76,54.67 C561.27,49.61 561.78,45.96 565.24,44.03 C569.33,41.75 571.97,43.79 573.62,50.50 C574.31,53.31 574.39,53.35 574.77,51.13 C575.28,48.11 579.82,44.07 582.75,44.03 C584.94,44.00 585.00,44.26 585.00,54.62 L 585.00 65.23 L 582.31 64.72 C580.32,64.34 579.16,64.79 577.83,66.49 C575.86,68.99 570.90,70.21 569.40,68.55 ZM 97.96 440.45 C99.31,442.07 101.58,441.54 102.39,439.42 C102.74,438.52 104.40,438.00 106.90,438.00 C111.80,438.00 115.54,436.65 116.32,434.60 C117.00,432.83 114.57,426.37 112.25,423.75 C110.23,421.48 105.82,421.51 102.98,423.81 C101.05,425.38 100.92,425.90 102.02,427.66 C103.69,430.34 102.57,434.62 100.02,435.29 C97.47,435.95 96.42,438.60 97.96,440.45 ZM 32.00 259.98 C32.00,261.44 32.66,262.00 34.39,262.00 C35.71,262.00 37.03,261.37 37.33,260.59 C37.68,259.66 39.35,259.20 42.21,259.24 C50.53,259.37 52.68,256.26 49.50,248.66 C47.13,242.99 42.24,241.36 37.98,244.82 C36.08,246.36 35.91,246.96 36.89,248.80 C38.49,251.79 37.22,255.97 34.37,257.05 C32.95,257.59 32.00,258.76 32.00,259.98 ZM 72.26 448.78 C75.65,450.42 79.53,450.20 81.92,448.25 C83.84,446.67 83.96,446.01 83.12,441.55 C82.13,436.33 80.06,434.00 76.39,434.00 C72.84,434.00 71.03,435.05 69.51,437.99 C67.66,441.57 69.11,447.26 72.26,448.78 ZM 6.12 269.12 C7.81,270.81 9.03,271.12 12.25,270.69 C17.46,270.00 19.60,267.98 18.10,265.19 C17.50,264.06 17.29,262.42 17.62,261.54 C18.69,258.76 15.15,256.00 10.55,256.00 C8.27,256.00 5.86,256.54 5.20,257.20 C3.15,259.25 3.72,266.72 6.12,269.12 ZM 46.49 458.99 C47.64,460.85 52.06,460.03 54.61,457.48 C57.23,454.86 57.16,451.64 54.43,449.50 C53.72,448.95 53.00,447.38 52.82,446.00 C52.58,444.13 51.82,443.42 49.81,443.19 C44.35,442.56 40.47,450.58 45.05,453.03 C46.46,453.78 46.91,454.72 46.48,456.05 C46.15,457.11 46.15,458.44 46.49,458.99 ZM 576.29 476.25 C577.35,468.33 581.82,456.00 583.62,456.00 C584.72,456.00 585.00,458.46 585.00,468.00 L 585.00 480.00 L 575.79 480.00 ZM 61.74 453.92 C64.17,455.33 65.20,455.25 67.78,453.44 C70.90,451.25 70.56,449.06 66.98,448.35 C63.02,447.55 62.47,446.46 64.49,443.38 C66.55,440.24 65.81,438.00 62.73,438.00 C61.45,438.00 59.94,437.54 59.37,436.97 C58.80,436.40 57.54,436.24 56.56,436.61 C55.12,437.17 54.91,438.02 55.42,441.24 C56.21,446.13 59.41,452.56 61.74,453.92 ZM 506.05 478.43 C508.34,475.68 513.14,473.80 516.95,474.17 C520.62,474.52 520.64,474.50 519.59,471.73 C518.11,467.82 519.79,465.50 524.11,465.50 C526.97,465.50 527.72,466.00 528.93,468.75 C529.72,470.54 530.95,472.00 531.68,472.00 C532.42,472.00 533.00,473.10 533.00,474.50 C533.00,475.88 533.45,477.00 534.00,477.00 C534.55,477.00 535.00,477.67 535.00,478.50 C535.00,479.39 533.85,479.77 528.81,479.91 C529.96,479.73 530.04,479.20 529.70,477.75 C528.38,472.20 526.05,467.47 524.49,467.16 C521.71,466.59 520.57,468.51 521.77,471.69 C522.36,473.24 523.11,475.74 523.44,477.25 C523.87,479.21 524.39,479.83 526.16,479.97 C524.42,479.99 522.34,480.00 519.88,480.00 C518.25,480.00 516.80,480.00 515.50,479.99 C518.91,479.93 520.00,479.55 520.00,478.52 C520.00,475.47 511.47,475.82 509.54,478.94 C509.18,479.52 510.26,479.86 512.72,479.97 C505.79,479.88 505.14,479.54 506.05,478.43 ZM 117.96 428.42 C119.98,433.11 123.15,434.65 124.35,431.52 C124.96,429.94 122.78,421.68 121.22,419.70 C120.70,419.04 119.99,417.31 119.65,415.86 C118.94,412.91 117.02,411.75 114.94,413.04 C113.81,413.74 113.78,414.50 114.78,417.27 C115.45,419.12 116.00,421.36 116.00,422.24 C116.00,423.12 116.88,425.90 117.96,428.42 ZM 53.06 249.65 C54.63,253.31 55.41,254.08 57.24,253.82 C60.29,253.39 60.00,250.09 56.15,241.32 C54.00,236.44 52.56,234.41 51.07,234.18 C49.62,233.96 49.00,234.40 49.01,235.68 C49.01,238.23 50.79,244.34 53.06,249.65 ZM 571.28 64.75 C572.64,66.51 575.67,66.31 576.40,64.41 C576.73,63.54 576.13,61.71 575.06,60.35 C574.00,59.00 572.37,55.63 571.46,52.87 C569.78,47.83 567.70,45.90 565.89,47.71 C564.94,48.66 569.15,61.99 571.28,64.75 ZM 581.77 61.76 C584.31,62.62 584.52,62.47 584.82,59.70 C585.01,58.03 584.58,56.36 583.87,55.92 C582.84,55.28 582.85,54.65 583.93,52.63 C586.80,47.26 581.69,45.49 578.29,50.68 C575.99,54.19 577.96,60.49 581.77,61.76 ZM 181.08 0.00 C179.48,0.00 177.90,0.56 177.58,1.25 C177.12,2.25 176.88,2.25 176.42,1.25 C176.10,0.56 174.52,0.00 172.92,0.00 C169.26,0.00 169.08,2.17 172.45,5.55 C175.49,8.58 178.65,8.67 181.69,5.83 C185.02,2.69 184.74,0.00 181.08,0.00 ZM 88.27 442.75 C89.47,444.28 90.28,444.32 91.68,442.92 C92.45,442.15 92.46,440.84 91.69,438.34 C90.88,435.69 90.93,434.35 91.89,432.80 C92.76,431.41 92.84,430.44 92.14,429.74 C90.64,428.24 85.00,430.80 85.00,432.97 C85.00,435.17 86.99,441.11 88.27,442.75 ZM 24.40 265.21 C25.00,265.61 26.10,265.33 26.82,264.61 C27.92,263.51 27.89,262.68 26.66,259.74 C25.35,256.58 25.35,255.94 26.71,254.01 C27.74,252.53 27.90,251.50 27.21,250.81 C25.62,249.22 20.56,252.10 20.17,254.83 C19.82,257.30 22.56,264.02 24.40,265.21 ZM 164.14 10.66 C165.60,12.43 167.46,12.35 169.03,10.47 C170.09,9.19 169.94,8.59 168.15,6.93 C166.97,5.82 166.00,4.03 166.00,2.93 C166.00,0.73 163.82,-0.53 161.53,0.35 C160.24,0.85 160.24,1.42 161.54,5.12 C162.36,7.43 163.53,9.93 164.14,10.66 ZM 197.16 0.00 C192.93,0.00 192.17,0.32 191.15,2.57 C190.50,3.99 190.23,5.57 190.55,6.07 C191.56,7.72 196.66,7.06 199.37,4.93 C203.53,1.65 202.80,0.00 197.16,0.00 ZM 157.05 239.75 C157.02,240.44 156.55,241.00 156.00,241.00 C154.04,241.00 155.53,225.99 157.56,225.31 C158.27,225.08 158.37,227.14 157.86,231.73 C157.44,235.45 157.08,239.06 157.05,239.75 ZM 158.00 265.12 C158.00,266.16 156.62,266.28 155.67,265.33 C154.68,264.34 154.86,258.00 155.88,258.00 C156.63,258.00 158.00,262.58 158.00,265.12 ZM 318.50 78.82 C317.95,79.33 315.77,80.07 313.64,80.44 C310.69,80.97 309.89,80.82 310.22,79.82 C310.47,79.06 312.55,78.37 315.08,78.19 C317.87,77.99 319.13,78.22 318.50,78.82 ZM 342.76 79.75 C343.20,81.10 342.15,81.16 337.50,80.04 C335.13,79.47 334.85,79.16 336.18,78.58 C338.49,77.56 342.26,78.24 342.76,79.75 ZM 314.00 419.50 C314.00,420.33 313.21,420.96 312.25,420.92 C307.48,420.71 306.32,418.00 311.00,418.00 ZM 497.98 249.69 C497.99,251.45 497.55,253.16 497.00,253.50 C496.38,253.88 496.01,252.10 496.02,248.81 C496.03,245.01 496.31,243.93 497.00,245.00 C497.53,245.82 497.98,247.94 497.98,249.69 ZM 453.89 363.94 C452.58,365.04 451.15,365.95 450.71,365.97 C449.45,366.02 451.99,361.94 453.61,361.32 C456.20,360.33 456.37,361.88 453.89,363.94 ZM 498.00 234.69 C498.00,236.09 496.76,236.43 495.67,235.33 C495.30,234.97 495.01,233.50 495.03,232.08 C495.06,229.60 495.12,229.57 496.53,231.44 C497.34,232.51 498.00,233.97 498.00,234.69 ZM 329.50 420.00 C329.16,420.55 327.59,421.00 326.00,421.00 C324.41,421.00 322.84,420.55 322.50,420.00 C322.13,419.40 323.51,419.00 326.00,419.00 C328.49,419.00 329.87,419.40 329.50,420.00 ZM 343.39 419.43 C342.68,421.29 338.64,421.60 339.24,419.75 C339.47,419.06 340.63,418.36 341.82,418.18 C343.44,417.94 343.84,418.26 343.39,419.43 ZM 357.50 81.00 C359.19,81.72 359.00,81.87 356.31,81.93 C354.55,81.97 352.84,81.55 352.50,81.00 C351.76,79.80 354.71,79.80 357.50,81.00 ZM 452.46 133.35 C453.46,134.08 454.09,135.23 453.86,135.91 C453.58,136.75 452.84,136.48 451.56,135.07 C449.32,132.59 449.90,131.47 452.46,133.35 ZM 296.54 417.07 C297.57,418.73 296.75,418.83 293.50,417.40 L 290.50 416.09 L 293.19 416.05 C294.67,416.02 296.18,416.48 296.54,417.07 ZM 498.00 263.73 C498.00,264.22 497.31,265.49 496.47,266.56 C494.99,268.44 494.95,268.42 495.22,266.08 C495.48,263.84 498.00,261.71 498.00,263.73 ZM 442.38 122.67 C443.31,123.19 443.60,124.03 443.12,124.81 C442.49,125.82 442.05,125.76 441.02,124.52 C439.44,122.62 440.27,121.49 442.38,122.67 ZM 305.00 79.89 C305.00,80.38 304.33,81.05 303.50,81.36 C302.59,81.71 302.00,81.36 302.00,80.47 C302.00,79.66 302.67,79.00 303.50,79.00 C304.33,79.00 305.00,79.40 305.00,79.89 ZM 495.36 217.50 C495.68,218.32 495.58,219.00 495.14,219.00 C494.09,219.00 493.00,217.89 493.00,216.83 C493.00,215.42 494.75,215.91 495.36,217.50 ZM 496.00 273.94 C496.00,274.46 495.55,275.16 495.00,275.50 C494.45,275.84 494.00,275.42 494.00,274.56 C494.00,273.70 494.45,273.00 495.00,273.00 C495.55,273.00 496.00,273.42 496.00,273.94 ZM 484.79 188.11 C477.70,197.34 469.80,204.52 462.94,208.22 C469.59,204.58 477.23,197.53 484.79,188.11 ZM 311.18 302.99 C310.92,305.88 310.80,308.95 310.82,312.41 C310.84,319.45 311.59,325.45 313.09,330.45 L 313.08 330.41 C310.83,323.27 310.20,312.86 311.18,302.99 ZM 335.10 349.24 C337.83,349.56 340.79,349.62 344.00,349.41 C346.35,349.25 348.75,349.03 350.59,348.82 C344.79,349.72 339.63,349.86 335.10,349.24 ZM 364.71 343.84 C366.95,342.76 369.16,341.64 370.95,340.67 C371.38,340.55 371.86,340.34 372.45,340.03 C370.53,341.14 367.73,342.51 364.71,343.84 ZM 466.70 150.58 C463.80,149.37 460.98,149.30 450.43,149.47 C443.92,149.58 440.27,149.70 437.01,150.20 C440.29,149.69 443.97,149.56 450.50,149.44 C461.20,149.24 464.94,149.50 466.70,150.58 ZM 181.95 341.36 C183.46,341.19 184.41,341.33 185.23,341.71 C186.78,342.45 188.14,343.07 189.43,343.60 C188.18,343.09 186.86,342.49 185.37,341.79 C184.65,341.45 183.37,341.32 181.95,341.36 ZM 374.78 338.30 C374.92,338.16 375.00,338.06 375.00,337.98 C375.00,338.25 374.56,338.67 373.79,339.19 C374.22,338.87 374.57,338.56 374.78,338.30 Z" fill="rgb(253,253,253)"/>
<path d="M 304.07 167.19 C305.81,167.98 307.68,169.13 309.43,170.49 C309.99,170.95 310.57,171.46 311.17,172.02 C311.74,172.53 312.21,172.96 312.60,173.36 C314.27,175.20 314.47,176.58 314.43,183.46 L 314.43 183.46 C314.43,183.72 314.43,184.00 314.43,184.28 C314.40,187.78 314.31,190.16 313.96,192.35 L 313.96 192.39 C313.49,195.31 312.57,197.92 310.73,202.46 C306.57,212.72 306.88,214.00 313.49,214.00 C316.94,214.00 318.68,213.25 322.72,210.04 C332.40,202.33 347.63,181.23 357.01,162.55 C361.26,154.09 361.86,150.96 359.59,149.07 C358.91,148.51 357.92,148.08 356.72,147.78 C357.90,148.01 358.21,147.88 357.71,147.38 C357.37,147.04 357.71,146.15 358.45,145.41 C359.22,144.64 359.82,141.88 359.85,139.05 C359.88,134.81 359.48,133.74 357.24,131.97 C352.45,128.20 346.00,131.91 346.00,138.44 C346.00,142.12 349.13,145.62 353.62,146.97 C354.61,147.26 355.42,147.49 356.06,147.64 C353.73,147.18 350.70,147.17 347.48,147.56 C346.28,147.69 345.05,147.89 343.83,148.13 C346.77,147.34 346.49,146.37 343.00,145.15 C339.63,143.98 339.43,143.34 341.53,140.56 C343.70,137.69 343.44,137.22 338.40,134.85 C334.56,133.04 333.66,132.92 332.92,134.10 C331.60,136.17 331.83,138.03 333.97,142.75 C335.29,145.66 335.52,147.00 334.70,147.02 C333.97,147.02 334.08,147.41 335.00,148.00 C335.83,148.53 336.12,148.98 335.65,148.98 C333.37,149.03 329.00,144.68 329.00,142.37 C329.00,140.24 328.60,139.91 326.28,140.18 C323.67,140.49 318.99,145.76 319.01,148.40 C319.01,148.83 320.08,149.57 321.64,150.27 C319.43,149.64 317.44,149.24 314.81,148.98 C317.68,148.92 317.92,148.61 317.00,147.50 C315.15,145.28 308.00,145.76 308.00,148.11 C308.00,148.30 308.37,148.49 309.00,148.64 C308.49,148.57 307.92,148.51 307.30,148.44 C300.52,147.72 293.08,147.92 285.53,148.90 C278.09,149.46 272.84,150.80 264.00,153.75 C257.30,155.99 251.60,158.43 246.78,161.15 C244.10,162.63 241.58,164.21 239.29,165.88 C236.98,167.57 233.52,171.28 231.59,174.14 C231.54,174.21 231.49,174.29 231.44,174.36 C231.30,174.57 231.15,174.77 231.01,174.98 C230.89,175.16 230.78,175.33 230.66,175.50 L 228.08 173.40 C223.57,169.74 221.78,172.19 224.10,178.85 C224.70,180.58 225.49,181.99 225.85,181.99 C226.21,181.98 227.44,180.52 228.58,178.74 L 228.93 178.20 C227.65,180.29 226.66,182.19 225.90,184.07 C225.63,184.54 225.34,185.40 224.90,186.70 C223.42,191.08 223.16,196.31 223.98,201.65 C224.67,207.96 226.89,213.53 231.03,219.54 C232.66,221.92 234.00,224.14 234.00,224.47 C234.00,224.81 235.69,226.91 237.75,229.13 C239.81,231.36 241.91,233.92 242.40,234.84 C242.90,235.75 245.86,238.98 248.99,242.00 C261.97,254.55 271.00,272.56 271.00,285.90 C271.00,286.15 271.00,286.40 270.99,286.66 C270.92,285.71 270.50,285.19 270.00,285.50 C269.45,285.84 269.00,286.77 269.00,287.56 C269.00,288.35 269.45,289.00 270.00,289.00 C270.45,289.00 270.84,288.37 270.96,287.52 C270.65,293.80 268.68,301.75 266.11,306.78 C263.83,311.26 255.20,320.09 251.31,321.93 C249.76,322.66 246.93,324.07 245.00,325.05 C234.75,330.27 217.38,331.35 209.50,327.26 C205.27,325.06 201.47,321.41 198.39,316.56 C196.87,314.18 196.53,311.72 196.57,303.56 C196.62,291.90 197.53,288.77 205.71,272.10 C211.02,261.29 211.21,260.63 209.46,259.35 C201.44,253.49 185.35,267.26 168.21,294.66 C167.37,296.00 166.43,297.56 165.43,299.29 L 165.30 299.51 C162.18,304.74 160.51,307.53 159.19,307.38 C157.64,307.20 156.57,303.00 154.21,293.99 C150.03,278.03 148.64,266.13 148.77,247.50 C148.96,218.44 154.22,195.86 166.70,170.50 C192.58,117.90 243.74,80.99 302.00,72.89 C313.95,71.23 342.36,71.50 354.50,73.39 C381.95,77.66 408.40,88.72 432.00,105.80 C448.17,117.51 478.50,150.84 474.96,153.02 C474.77,153.14 474.54,153.23 474.28,153.28 C473.09,153.44 471.11,152.83 468.73,151.57 C467.99,151.18 467.34,150.85 466.70,150.58 C464.94,149.50 461.20,149.24 450.50,149.44 C443.97,149.56 440.29,149.69 437.01,150.20 L 437.01 150.20 C433.75,150.71 430.89,151.60 426.00,153.25 C399.57,162.18 376.59,180.61 353.80,211.14 C334.27,237.32 318.70,268.37 312.87,292.77 C312.05,296.17 311.51,299.45 311.18,302.99 L 311.18 302.99 C310.20,312.86 310.83,323.27 313.08,330.41 L 313.09 330.45 C315.48,338.42 319.80,343.82 326.14,346.79 C325.45,346.49 324.83,346.17 324.29,345.84 C320.35,343.44 317.72,344.48 316.13,349.07 C314.91,352.57 316.62,357.26 319.53,358.37 C320.41,358.71 321.00,359.78 320.84,360.74 C320.68,361.71 320.90,363.06 321.33,363.75 C322.37,365.40 324.46,365.33 327.98,363.51 C331.16,361.87 332.47,359.06 331.50,356.00 C331.15,354.90 331.14,353.12 331.49,352.05 C332.10,350.11 332.13,350.11 335.30,352.04 C339.49,354.60 341.30,354.51 344.69,351.57 L 347.37 349.25 C348.42,349.14 349.49,348.99 350.59,348.82 C351.40,348.73 352.11,348.63 352.64,348.55 C353.23,348.46 353.69,348.38 354.00,348.31 C354.63,348.17 355.58,347.84 356.73,347.40 C359.10,346.59 361.22,345.65 362.89,344.71 C363.49,344.42 364.10,344.13 364.71,343.84 C367.73,342.51 370.53,341.14 372.45,340.03 C372.48,340.01 372.50,340.00 372.53,339.98 C372.78,339.85 373.02,339.71 373.24,339.57 C373.27,339.62 373.30,339.68 373.34,339.74 C373.79,340.47 375.29,340.48 378.24,339.76 C383.37,338.52 385.05,337.11 385.42,333.74 L 385.70 331.20 L 381.70 334.10 C380.69,334.83 379.64,335.50 378.72,336.01 C378.88,335.90 379.04,335.78 379.19,335.66 C380.56,334.83 382.27,333.70 383.97,332.44 C386.21,330.79 387.80,329.72 389.13,329.07 C388.69,329.37 388.50,329.81 388.40,330.47 C388.24,331.55 388.63,333.05 389.25,333.80 C389.98,334.68 391.44,334.96 393.32,334.59 C394.93,334.26 396.83,334.00 397.54,334.00 C398.20,334.00 398.46,333.59 398.37,332.64 C398.39,332.72 398.40,332.81 398.42,332.89 C399.58,338.39 405.75,345.32 409.05,344.83 C411.22,344.50 412.85,341.86 425.90,317.50 C426.53,316.32 427.48,314.66 428.63,312.72 C428.55,313.53 428.82,314.47 429.33,315.02 C430.23,316.00 430.21,316.13 429.25,315.59 C427.49,314.60 427.70,315.62 429.72,317.99 C431.67,320.26 431.93,320.33 433.94,319.06 C435.16,318.28 435.18,317.56 434.03,314.08 C432.87,310.59 432.89,309.76 434.15,308.25 C435.46,306.70 435.62,305.90 435.12,303.35 C435.06,303.02 434.19,303.98 433.10,305.40 C434.76,302.74 436.50,300.01 438.13,297.50 C448.71,281.30 465.40,252.70 468.16,246.06 C469.31,243.31 469.98,240.40 469.67,239.59 C468.50,236.53 461.21,235.81 434.06,236.09 C415.81,236.28 406.32,236.77 403.73,237.65 C398.49,239.42 393.80,243.23 391.23,247.80 C387.92,253.69 389.26,254.64 401.85,255.35 C410.62,255.84 412.90,256.33 416.73,258.58 L 421.26 261.23 L 420.69 266.73 C420.31,270.37 419.19,273.61 417.34,276.36 C415.81,278.64 413.87,281.72 413.03,283.22 C408.60,291.12 392.53,307.80 383.47,313.91 C373.44,320.68 368.99,322.40 361.35,322.45 C355.57,322.49 353.79,322.12 352.00,320.50 C341.58,311.07 345.36,285.52 362.21,251.46 C369.48,236.76 371.80,232.81 382.15,217.50 C396.73,195.94 414.38,177.95 427.31,171.48 C433.46,168.40 435.15,168.00 441.88,168.03 C447.82,168.06 449.99,168.48 451.74,169.93 C457.25,174.53 457.49,184.10 452.44,197.58 C448.23,208.84 448.46,211.00 453.87,211.00 C456.56,211.00 459.63,210.03 462.94,208.22 C469.80,204.52 477.70,197.34 484.79,188.11 C484.89,187.99 484.99,187.86 485.09,187.74 C485.00,188.94 485.84,191.92 487.98,198.60 C489.62,203.71 491.25,209.72 491.61,211.95 C492.00,214.40 492.80,216.00 493.63,216.00 L 493.67 216.00 C494.09,216.00 494.41,216.00 494.61,215.85 C495.23,215.37 494.70,213.40 492.55,205.29 L 492.47 205.00 C489.66,194.43 486.89,187.01 485.75,187.00 C485.72,187.00 485.69,187.00 485.67,187.01 C486.35,186.13 487.04,185.24 487.72,184.33 C489.34,182.43 490.66,181.31 490.98,181.65 C493.71,184.64 499.76,206.69 502.50,223.61 C503.30,228.52 503.79,234.09 504.01,239.98 C504.00,240.08 504.00,240.17 504.00,240.27 C504.00,240.43 504.01,240.59 504.03,240.75 C504.59,257.93 502.78,277.78 499.01,292.50 C490.62,325.24 475.86,351.14 452.00,375.00 C424.28,402.72 393.17,418.48 352.50,425.39 C341.64,427.24 329.12,427.72 315.00,426.85 C292.29,425.45 267.38,418.82 247.84,408.99 C238.97,404.53 227.95,397.71 217.31,390.12 C212.30,386.55 188.61,362.83 185.61,358.39 C184.45,356.67 181.61,352.51 179.31,349.15 C177.18,346.04 175.67,343.30 175.76,342.73 C178.51,341.98 180.43,341.54 181.87,341.37 C181.70,341.91 182.53,343.21 184.65,346.25 C207.99,379.72 244.26,405.28 283.00,415.56 C291.78,417.89 296.10,418.55 292.50,417.00 C291.99,416.78 291.62,416.61 291.40,416.49 L 293.50 417.40 C296.15,418.56 297.18,418.72 296.92,417.83 C297.58,418.51 298.94,419.11 300.34,419.28 C306.95,420.11 308.00,420.01 308.00,418.50 C308.00,417.51 307.01,417.00 305.12,417.00 C303.54,417.00 300.84,416.72 299.11,416.37 C296.79,415.91 296.19,415.99 296.44,416.94 C295.95,416.41 294.56,416.02 293.19,416.05 L 291.68 416.07 C291.98,416.02 292.42,415.98 293.00,415.93 L 295.50 415.73 L 293.00 415.28 C288.69,414.52 272.74,409.98 267.00,407.88 C250.91,402.00 227.60,387.84 214.92,376.23 C202.42,364.79 188.57,349.10 186.24,343.75 C185.81,342.77 185.23,342.01 184.57,341.54 C184.88,341.60 185.15,341.69 185.37,341.79 C186.86,342.49 188.18,343.09 189.43,343.60 C195.90,346.25 200.42,346.49 217.50,346.42 C224.43,346.40 229.08,346.35 232.66,346.18 C232.16,346.36 231.71,346.66 231.50,347.00 C231.16,347.55 231.56,348.00 232.38,348.00 C233.21,348.00 234.16,347.55 234.50,347.00 C234.75,346.60 234.60,346.24 234.18,346.09 C239.21,345.75 242.18,345.07 247.44,343.63 C263.97,339.11 277.81,330.53 288.27,318.35 C297.22,307.93 301.19,298.94 302.91,285.27 C305.35,265.76 298.96,250.57 278.68,227.66 C263.52,210.55 258.11,201.04 258.03,191.40 C258.02,190.20 258.17,188.97 258.45,187.74 C258.64,187.74 259.05,187.46 259.72,186.95 C264.53,183.29 266.00,181.45 266.00,179.03 C266.00,177.58 266.56,175.79 267.25,175.05 C267.91,174.33 267.37,174.53 266.05,175.46 C267.04,174.54 268.10,173.66 269.22,172.83 C268.93,173.34 269.13,173.79 269.67,174.33 C270.03,174.70 271.85,175.00 273.71,175.00 C277.34,175.00 282.00,171.37 282.00,168.55 C282.00,167.53 281.67,167.04 280.67,167.12 C281.73,166.81 282.90,166.53 284.35,166.22 C284.78,166.15 285.23,166.10 285.69,166.05 C284.98,166.61 285.12,167.44 286.06,168.58 C287.60,170.42 288.90,170.04 290.80,167.17 C291.21,166.55 291.50,166.11 291.63,165.80 C292.28,165.79 292.96,165.80 293.69,165.80 C298.35,165.85 301.42,166.17 304.07,167.19 ZM 156.48 223.26 C155.94,225.37 156.10,225.90 157.14,225.50 C157.94,225.19 159.21,221.35 160.21,216.24 C164.79,192.82 175.44,168.83 190.15,148.79 C199.76,135.70 218.57,117.77 232.00,108.91 C245.04,100.30 250.45,97.45 264.16,91.90 C273.71,88.04 295.39,82.01 299.75,82.00 C301.07,82.00 302.00,81.39 302.00,80.53 C302.00,78.97 301.91,78.98 290.00,81.17 C281.94,82.65 264.88,88.58 254.00,93.68 C216.58,111.22 188.07,139.91 170.18,178.00 C165.55,187.86 164.04,191.98 161.01,203.00 C160.33,205.48 159.36,208.62 158.87,210.00 C158.38,211.38 157.79,214.30 157.57,216.50 C157.35,218.70 156.86,221.74 156.48,223.26 ZM 453.89 363.94 C456.37,361.88 456.20,360.33 453.61,361.32 C452.41,361.78 450.70,364.15 450.41,365.31 C450.40,365.11 450.44,364.88 450.54,364.66 C450.84,364.02 450.28,364.60 449.30,365.95 C448.31,367.29 442.57,372.60 436.54,377.76 C426.29,386.52 411.67,396.17 399.03,402.51 C391.03,406.52 368.95,413.50 358.00,415.47 C346.74,417.49 344.13,418.14 343.42,419.35 C343.82,418.24 343.41,417.95 341.82,418.18 C340.75,418.34 339.71,418.92 339.34,419.54 C339.36,419.51 339.37,419.47 339.38,419.44 C339.90,418.11 339.29,417.98 335.24,418.56 C332.63,418.93 330.07,419.63 329.55,420.12 C328.99,420.64 330.70,421.00 333.69,421.00 C337.13,421.00 338.72,420.63 339.28,419.67 C339.26,419.69 339.25,419.72 339.24,419.75 C338.66,421.52 342.33,421.31 343.28,419.66 L 343.27 419.67 C342.90,420.80 345.31,420.63 349.00,419.27 C349.83,418.96 351.69,418.81 353.15,418.92 C354.61,419.04 356.07,418.69 356.40,418.16 C356.73,417.62 357.87,417.42 358.93,417.69 C360.00,417.97 362.36,417.71 364.18,417.10 C366.01,416.50 367.83,415.97 368.23,415.92 C377.04,414.84 398.71,405.84 414.50,396.71 C427.61,389.12 453.96,367.15 451.09,366.20 C450.94,366.15 450.81,366.07 450.71,365.97 L 450.71 365.97 C451.15,365.95 452.58,365.04 453.89,363.94 ZM 357.50 81.00 C354.71,79.80 351.76,79.80 352.50,81.00 C352.84,81.55 354.55,81.97 356.31,81.93 C357.30,81.91 357.95,81.87 358.29,81.80 C358.23,81.85 358.15,81.90 358.07,81.96 C357.36,82.39 359.51,83.23 363.18,83.94 C386.27,88.44 416.60,103.39 436.00,119.83 C440.97,124.04 442.21,122.40 437.32,118.08 C425.09,107.25 402.33,93.90 385.84,87.88 C375.82,84.22 360.27,79.96 357.50,80.12 C355.62,80.22 355.62,80.26 357.40,80.72 C358.36,80.96 358.73,81.22 358.54,81.55 C358.41,81.42 358.06,81.24 357.50,81.00 ZM 459.30 354.25 C455.89,358.53 454.46,361.00 455.41,361.00 C458.63,361.00 472.60,340.99 480.19,325.52 C487.54,310.53 493.87,291.64 495.59,279.50 C496.24,274.93 496.16,274.62 494.65,275.87 C493.74,276.63 493.00,278.20 493.00,279.37 C493.00,280.54 491.85,285.77 490.46,291.00 C483.86,315.72 473.90,335.95 459.30,354.25 ZM 440.25 315.85 C441.82,317.42 443.51,317.29 445.00,315.50 C445.68,314.67 447.33,314.00 448.65,314.00 C449.98,314.00 452.62,313.35 454.53,312.55 C458.51,310.89 458.96,308.55 456.47,302.58 C454.69,298.33 451.70,296.86 447.69,298.26 C445.49,299.03 444.91,299.81 445.04,301.87 C445.49,308.89 445.03,311.00 443.04,311.00 C440.51,311.00 438.64,314.24 440.25,315.85 ZM 375.00 136.50 C376.64,138.48 377.68,138.39 379.63,136.12 C380.53,135.07 382.03,134.46 383.05,134.72 C385.76,135.43 391.87,133.11 393.03,130.94 C393.81,129.48 393.46,127.87 391.51,124.02 C389.35,119.75 388.54,119.00 386.09,119.00 C384.51,119.00 382.23,119.81 381.01,120.79 C379.04,122.39 378.97,122.73 380.34,123.87 C381.74,125.03 381.73,125.49 380.26,128.58 C379.36,130.46 378.09,132.00 377.44,132.00 C376.78,132.00 375.68,132.68 375.00,133.50 C374.01,134.70 374.01,135.30 375.00,136.50 ZM 303.24 364.78 C310.36,368.21 316.43,362.87 313.95,355.35 C311.96,349.31 306.11,348.19 301.52,352.98 C298.84,355.78 298.74,356.19 299.83,359.82 C300.51,362.09 301.92,364.14 303.24,364.78 ZM 293.80 367.95 C296.00,369.23 298.72,369.27 299.48,368.02 C299.82,367.49 299.18,365.35 298.07,363.27 C296.95,361.20 295.16,357.36 294.08,354.75 C292.08,349.91 289.51,348.52 288.31,351.63 C287.43,353.92 291.75,366.75 293.80,367.95 ZM 158.00 265.12 C158.00,262.58 156.63,258.00 155.88,258.00 C154.86,258.00 154.68,264.34 155.67,265.33 C155.69,265.36 155.72,265.38 155.74,265.40 C155.01,265.30 154.97,265.90 155.39,267.74 C156.05,270.59 156.43,273.22 157.31,281.06 C157.77,285.14 161.55,299.21 162.75,301.34 C163.01,301.80 163.66,301.74 164.19,301.21 C164.82,300.58 164.62,298.63 163.63,295.72 C161.85,290.49 158.00,271.86 158.00,268.50 C158.00,267.53 157.57,266.54 156.97,265.97 C157.54,266.01 158.00,265.72 158.00,265.12 ZM 396.08 127.14 C397.54,129.87 400.43,129.08 400.81,125.84 C401.22,122.30 395.59,110.00 393.56,110.00 C392.08,110.00 391.50,111.29 391.98,113.50 C393.03,118.26 395.21,125.53 396.08,127.14 ZM 462.23 306.75 C464.16,309.12 466.00,308.14 466.00,304.75 C466.00,300.58 460.56,289.00 458.60,289.00 C456.55,289.00 455.54,290.94 456.89,292.29 C457.50,292.90 458.00,294.38 458.00,295.58 C458.00,297.93 460.57,304.71 462.23,306.75 ZM 363.12 136.06 C364.54,139.35 365.84,141.00 367.04,141.00 C369.41,141.00 369.89,139.25 368.64,135.18 C367.90,132.76 367.94,131.32 368.81,129.94 C370.63,127.01 370.25,126.00 367.33,126.00 C364.69,126.00 361.00,128.46 361.00,130.22 C361.00,130.72 361.96,133.35 363.12,136.06 ZM 497.98 249.69 C497.98,248.42 497.74,246.95 497.41,245.93 C497.79,246.02 498.00,244.37 498.00,241.11 C498.00,238.27 497.71,236.70 497.01,235.98 C497.58,235.97 498.00,235.51 498.00,234.69 C498.00,233.97 497.34,232.51 496.53,231.44 C495.12,229.57 495.06,229.60 495.03,232.08 C495.01,233.50 495.30,234.97 495.67,235.33 C495.71,235.38 495.76,235.42 495.80,235.46 C495.14,235.46 495.13,236.30 495.54,238.77 C495.89,240.82 496.39,243.29 496.65,244.25 C496.70,244.43 496.75,244.59 496.80,244.73 C496.25,244.18 496.03,245.41 496.02,248.81 C496.01,252.10 496.38,253.88 497.00,253.50 C497.55,253.16 497.99,251.45 497.98,249.69 ZM 452.46 133.35 C452.12,133.10 451.82,132.90 451.55,132.76 C452.98,132.77 452.44,131.98 448.94,128.48 C446.50,126.05 444.16,124.05 443.75,124.03 C443.59,124.03 443.46,124.04 443.35,124.08 C443.36,123.54 443.02,123.03 442.38,122.67 C440.27,121.49 439.44,122.62 441.02,124.52 C441.98,125.68 442.43,125.81 442.99,125.00 C443.17,126.01 444.25,127.69 445.99,129.49 C447.28,130.82 449.00,132.01 450.26,132.50 C449.96,132.79 450.35,133.73 451.56,135.07 C452.84,136.48 453.58,136.75 453.86,135.91 C454.09,135.23 453.46,134.08 452.46,133.35 ZM 319.00 78.50 C317.91,79.81 318.82,80.00 326.32,80.00 C335.04,80.00 338.48,78.75 332.86,77.62 C327.17,76.48 320.31,76.92 319.00,78.50 ZM 154.47 252.60 C155.50,260.86 157.00,259.02 157.00,249.50 C157.00,240.97 155.75,238.30 154.48,244.10 C154.10,245.81 154.10,249.64 154.47,252.60 ZM 157.05 239.75 C157.08,239.06 157.44,235.45 157.86,231.73 C158.37,227.14 158.27,225.08 157.56,225.31 C155.53,225.99 154.04,241.00 156.00,241.00 C156.55,241.00 157.02,240.44 157.05,239.75 ZM 495.36 217.50 C495.00,216.56 494.24,216.00 493.67,216.00 C493.29,216.00 493.00,216.26 493.00,216.83 C493.00,217.40 493.31,217.98 493.76,218.40 C493.04,218.28 493.02,218.88 493.53,220.74 C493.94,222.26 494.24,224.36 494.19,225.41 C494.14,226.46 494.56,228.19 495.13,229.25 C496.72,232.22 497.11,230.81 496.39,224.70 C496.06,221.84 495.48,219.82 494.78,218.96 C494.90,218.99 495.02,219.00 495.14,219.00 C495.58,219.00 495.68,218.32 495.36,217.50 ZM 495.65 259.21 C495.15,263.10 495.30,263.82 496.52,263.35 C497.56,262.96 498.00,261.26 498.00,257.69 C498.00,251.56 496.51,252.52 495.65,259.21 ZM 314.00 419.39 C314.00,420.64 315.04,421.00 318.70,421.00 C324.09,421.00 323.54,419.53 317.75,418.47 C314.68,417.90 314.00,418.07 314.00,419.39 ZM 448.44 147.47 C446.67,148.81 447.02,148.93 452.50,148.83 C455.80,148.77 457.49,148.53 456.25,148.29 C455.01,148.06 454.00,147.44 454.00,146.93 C454.00,145.50 450.61,145.83 448.44,147.47 ZM 318.50 78.82 C319.13,78.22 317.87,77.99 315.08,78.19 C312.55,78.37 310.47,79.06 310.22,79.82 C309.89,80.82 310.69,80.97 313.64,80.44 C315.77,80.07 317.95,79.33 318.50,78.82 ZM 342.76 79.75 C342.26,78.24 338.49,77.56 336.18,78.58 C334.85,79.16 335.13,79.47 337.50,80.04 C342.15,81.16 343.20,81.10 342.76,79.75 ZM 314.00 419.50 C306.32,418.00 307.48,420.71 312.25,420.92 C313.21,420.96 314.00,420.33 314.00,419.50 ZM 342.59 79.38 C343.27,81.15 349.00,81.70 349.00,80.00 C349.00,79.45 348.44,78.99 347.75,78.99 C347.06,78.98 345.48,78.70 344.24,78.37 C342.43,77.88 342.10,78.09 342.59,79.38 ZM 305.00 80.11 C305.00,81.63 309.75,81.09 310.36,79.50 C310.70,78.61 310.37,78.00 309.55,78.00 C307.41,78.00 305.00,79.12 305.00,80.11 ZM 329.50 420.00 C329.87,419.40 328.49,419.00 326.00,419.00 C323.51,419.00 322.13,419.40 322.50,420.00 C322.84,420.55 324.41,421.00 326.00,421.00 C327.59,421.00 329.16,420.55 329.50,420.00 ZM 494.55 270.75 C494.04,272.42 494.27,273.00 495.43,273.00 C496.53,273.00 497.00,272.04 497.00,269.80 C497.00,266.38 495.71,266.88 494.55,270.75 ZM 213.50 348.00 C217.77,349.09 218.32,349.09 220.00,348.00 C221.06,347.31 219.89,347.06 216.00,347.13 C211.41,347.22 210.99,347.36 213.50,348.00 ZM 324.00 351.03 C324.00,353.00 322.93,353.59 321.67,352.33 C320.59,351.25 320.90,350.25 322.50,349.64 C323.52,349.25 324.00,349.69 324.00,351.03 ZM 498.00 263.73 C498.00,261.71 495.48,263.84 495.22,266.08 C494.95,268.42 494.99,268.44 496.47,266.56 C497.31,265.49 498.00,264.22 498.00,263.73 ZM 308.00 357.50 C308.00,359.06 306.82,359.48 305.67,358.33 C304.52,357.18 304.94,356.00 306.50,356.00 C307.33,356.00 308.00,356.67 308.00,357.50 ZM 305.00 79.89 C305.00,79.40 304.33,79.00 303.50,79.00 C302.67,79.00 302.00,79.66 302.00,80.47 C302.00,81.36 302.59,81.71 303.50,81.36 C304.33,81.05 305.00,80.38 305.00,79.89 ZM 292.92 146.91 C290.65,147.81 290.71,147.88 293.95,147.94 C296.32,147.98 297.08,147.68 296.37,146.97 C295.69,146.29 294.52,146.27 292.92,146.91 ZM 496.00 273.94 C496.00,273.42 495.55,273.00 495.00,273.00 C494.45,273.00 494.00,273.70 494.00,274.56 C494.00,275.42 494.45,275.84 495.00,275.50 C495.55,275.16 496.00,274.46 496.00,273.94 ZM 397.17 329.25 C396.50,328.61 395.38,328.50 393.02,328.50 C391.48,328.50 390.45,328.57 389.76,328.78 C391.17,328.18 392.34,328.07 393.83,328.19 C395.34,328.32 396.24,328.44 396.85,328.89 C396.96,329.00 397.07,329.12 397.17,329.25 ZM 375.99 337.06 C375.42,337.24 375.00,337.84 375.00,338.56 C375.00,339.48 374.53,339.83 373.85,339.40 C373.78,339.36 373.71,339.32 373.65,339.29 C373.70,339.26 373.75,339.22 373.79,339.19 C374.56,338.67 375.00,338.25 375.00,337.98 C375.00,337.65 375.24,337.35 375.60,337.17 C375.72,337.12 375.85,337.08 375.99,337.06 ZM 335.10 349.24 C337.81,349.61 340.74,349.71 343.90,349.54 L 343.17 349.62 C340.82,349.89 337.77,349.70 334.73,349.19 C334.85,349.21 334.98,349.22 335.10,349.24 ZM 336.30 150.41 C336.23,150.44 336.16,150.46 336.10,150.49 C338.05,149.64 340.52,148.82 342.18,148.49 C340.13,148.99 338.12,149.63 336.30,150.41 ZM 329.17 152.66 C329.92,152.77 330.55,152.75 331.19,152.61 C330.55,152.78 330.00,152.82 329.38,152.73 Z" fill="rgb(193,183,188)"/>
<path d="M 324.29 345.84 C324.83,346.17 325.45,346.49 326.14,346.79 C328.68,347.98 331.54,348.77 334.73,349.19 C337.77,349.70 340.82,349.89 343.17,349.62 L 343.90 349.54 C345.03,349.48 346.18,349.38 347.37,349.25 L 344.69 351.57 C341.30,354.51 339.49,354.60 335.30,352.04 C332.13,350.11 332.10,350.11 331.49,352.05 C331.14,353.12 331.15,354.90 331.50,356.00 C332.47,359.06 331.16,361.87 327.98,363.51 C324.46,365.33 322.37,365.40 321.33,363.75 C320.90,363.06 320.68,361.71 320.84,360.74 C321.00,359.78 320.41,358.71 319.53,358.37 C316.62,357.26 314.91,352.57 316.13,349.07 C317.72,344.48 320.35,343.44 324.29,345.84 ZM 326.34 151.75 C326.26,151.72 326.17,151.68 326.08,151.65 C324.49,151.01 323.03,150.57 321.76,150.31 C321.72,150.30 321.68,150.28 321.64,150.27 C320.08,149.57 319.01,148.83 319.01,148.40 C318.99,145.76 323.67,140.49 326.28,140.18 C328.60,139.91 329.00,140.24 329.00,142.37 C329.00,144.68 333.37,149.03 335.65,148.98 C336.12,148.98 335.83,148.53 335.00,148.00 C334.08,147.41 333.97,147.02 334.70,147.02 C335.52,147.00 335.29,145.66 333.97,142.75 C331.83,138.03 331.60,136.17 332.92,134.10 C333.66,132.92 334.56,133.04 338.40,134.85 C343.44,137.22 343.70,137.69 341.53,140.56 C339.43,143.34 339.63,143.98 343.00,145.15 C346.49,146.37 346.77,147.34 343.83,148.13 C343.28,148.24 342.73,148.36 342.18,148.49 C340.52,148.82 338.05,149.64 336.10,150.49 C335.54,150.73 335.00,150.97 334.47,151.23 C333.02,151.93 332.03,152.39 331.19,152.61 C330.55,152.75 329.92,152.77 329.17,152.66 ZM 440.25 315.85 C438.64,314.24 440.51,311.00 443.04,311.00 C445.03,311.00 445.49,308.89 445.04,301.87 C444.91,299.81 445.49,299.03 447.69,298.26 C451.70,296.86 454.69,298.33 456.47,302.58 C458.96,308.55 458.51,310.89 454.53,312.55 C452.62,313.35 449.98,314.00 448.65,314.00 C447.33,314.00 445.68,314.67 445.00,315.50 C443.51,317.29 441.82,317.42 440.25,315.85 ZM 375.00 136.50 C374.01,135.30 374.01,134.70 375.00,133.50 C375.68,132.68 376.78,132.00 377.44,132.00 C378.09,132.00 379.36,130.46 380.26,128.58 C381.73,125.49 381.74,125.03 380.34,123.87 C378.97,122.73 379.04,122.39 381.01,120.79 C382.23,119.81 384.51,119.00 386.09,119.00 C388.54,119.00 389.35,119.75 391.51,124.02 C393.46,127.87 393.81,129.48 393.03,130.94 C391.87,133.11 385.76,135.43 383.05,134.72 C382.03,134.46 380.53,135.07 379.63,136.12 C377.68,138.39 376.64,138.48 375.00,136.50 ZM 303.24 364.78 C301.92,364.14 300.51,362.09 299.83,359.82 C298.74,356.19 298.84,355.78 301.52,352.98 C306.11,348.19 311.96,349.31 313.95,355.35 C316.43,362.87 310.36,368.21 303.24,364.78 ZM 357.71 147.38 C358.21,147.88 357.90,148.01 356.72,147.78 C356.51,147.73 356.29,147.68 356.06,147.64 C355.42,147.49 354.61,147.26 353.62,146.97 C349.13,145.62 346.00,142.12 346.00,138.44 C346.00,131.91 352.45,128.20 357.24,131.97 C359.48,133.74 359.88,134.81 359.85,139.05 C359.82,141.88 359.22,144.64 358.45,145.41 C357.71,146.15 357.37,147.04 357.71,147.38 ZM 293.80 367.95 C291.75,366.75 287.43,353.92 288.31,351.63 C289.51,348.52 292.08,349.91 294.08,354.75 C295.16,357.36 296.95,361.20 298.07,363.27 C299.18,365.35 299.82,367.49 299.48,368.02 C298.72,369.27 296.00,369.23 293.80,367.95 ZM 396.08 127.14 C395.21,125.53 393.03,118.26 391.98,113.50 C391.50,111.29 392.08,110.00 393.56,110.00 C395.59,110.00 401.22,122.30 400.81,125.84 C400.43,129.08 397.54,129.87 396.08,127.14 ZM 462.23 306.75 C460.57,304.71 458.00,297.93 458.00,295.58 C458.00,294.38 457.50,292.90 456.89,292.29 C455.54,290.94 456.55,289.00 458.60,289.00 C460.56,289.00 466.00,300.58 466.00,304.75 C466.00,308.14 464.16,309.12 462.23,306.75 ZM 363.12 136.06 C361.96,133.35 361.00,130.72 361.00,130.22 C361.00,128.46 364.69,126.00 367.33,126.00 C370.25,126.00 370.63,127.01 368.81,129.94 C367.94,131.32 367.90,132.76 368.64,135.18 C369.89,139.25 369.41,141.00 367.04,141.00 C365.84,141.00 364.54,139.35 363.12,136.06 ZM 429.33 315.02 C428.82,314.47 428.55,313.53 428.63,312.72 C429.93,310.54 431.48,308.00 433.10,305.40 C434.19,303.98 435.06,303.02 435.12,303.35 C435.62,305.90 435.46,306.70 434.15,308.25 C432.89,309.76 432.87,310.59 434.03,314.08 C435.18,317.56 435.16,318.28 433.94,319.06 C431.93,320.33 431.67,320.26 429.72,317.99 C427.70,315.62 427.49,314.60 429.25,315.59 C430.21,316.13 430.23,316.00 429.33,315.02 ZM 269.67 174.33 C269.13,173.79 268.93,173.34 269.22,172.83 C270.92,171.58 272.77,170.47 274.73,169.52 C277.03,168.40 278.64,167.72 280.67,167.12 C281.67,167.04 282.00,167.53 282.00,168.55 C282.00,171.37 277.34,175.00 273.71,175.00 C271.85,175.00 270.03,174.70 269.67,174.33 ZM 397.17 329.25 C397.66,329.93 398.01,330.99 398.37,332.64 C398.46,333.59 398.20,334.00 397.54,334.00 C396.83,334.00 394.93,334.26 393.32,334.59 C391.44,334.96 389.98,334.68 389.25,333.80 C388.63,333.05 388.24,331.55 388.40,330.47 C388.50,329.81 388.69,329.37 389.13,329.07 C389.34,328.96 389.55,328.86 389.76,328.78 C390.45,328.57 391.48,328.50 393.02,328.50 C395.38,328.50 396.50,328.61 397.17,329.25 ZM 228.08 173.40 L 230.66 175.50 C230.03,176.44 229.45,177.34 228.93,178.20 L 228.58 178.74 C227.44,180.52 226.21,181.98 225.85,181.99 C225.49,181.99 224.70,180.58 224.10,178.85 C221.78,172.19 223.57,169.74 228.08,173.40 ZM 375.99 337.06 C376.17,337.02 376.35,337.00 376.55,337.00 C377.06,337.00 377.89,336.61 378.73,336.01 C379.64,335.50 380.69,334.83 381.70,334.10 L 385.70 331.20 L 385.42 333.74 C385.05,337.11 383.37,338.52 378.24,339.76 C375.29,340.48 373.79,340.47 373.34,339.74 C373.30,339.68 373.27,339.62 373.24,339.57 C373.38,339.48 373.52,339.39 373.65,339.29 C373.71,339.32 373.78,339.36 373.85,339.40 C374.53,339.83 375.00,339.48 375.00,338.56 C375.00,337.84 375.42,337.24 375.99,337.06 ZM 259.72 186.95 C259.05,187.46 258.64,187.74 258.45,187.74 C259.45,183.45 262.17,179.12 266.05,175.46 C267.37,174.53 267.91,174.33 267.25,175.05 C266.56,175.79 266.00,177.58 266.00,179.03 C266.00,181.45 264.53,183.29 259.72,186.95 ZM 309.28 148.67 C309.19,148.66 309.09,148.65 309.00,148.64 C308.37,148.49 308.00,148.30 308.00,148.11 C308.00,145.76 315.15,145.28 317.00,147.50 C317.92,148.61 317.68,148.92 314.81,148.98 C313.25,148.83 311.47,148.74 309.28,148.67 ZM 286.06 168.58 C285.12,167.44 284.98,166.61 285.69,166.05 C287.38,165.87 289.28,165.80 291.63,165.80 C291.50,166.11 291.21,166.55 290.80,167.17 C288.90,170.04 287.60,170.42 286.06,168.58 ZM 448.44 147.47 C450.61,145.83 454.00,145.50 454.00,146.93 C454.00,147.44 455.01,148.06 456.25,148.29 C457.49,148.53 455.80,148.77 452.50,148.83 C447.02,148.93 446.67,148.81 448.44,147.47 ZM 213.50 348.00 C210.99,347.36 211.41,347.22 216.00,347.13 C219.89,347.06 221.06,347.31 220.00,348.00 C218.32,349.09 217.77,349.09 213.50,348.00 ZM 324.00 351.03 C324.00,349.69 323.52,349.25 322.50,349.64 C320.90,350.25 320.59,351.25 321.67,352.33 C322.93,353.59 324.00,353.00 324.00,351.03 ZM 308.00 357.50 C308.00,356.67 307.33,356.00 306.50,356.00 C304.94,356.00 304.52,357.18 305.67,358.33 C306.82,359.48 308.00,359.06 308.00,357.50 ZM 292.92 146.91 C294.52,146.27 295.69,146.29 296.37,146.97 C297.08,147.68 296.32,147.98 293.95,147.94 C290.71,147.88 290.65,147.81 292.92,146.91 ZM 270.00 285.50 C270.50,285.19 270.92,285.71 270.99,286.66 C270.98,286.95 270.97,287.23 270.96,287.52 C270.84,288.37 270.45,289.00 270.00,289.00 C269.45,289.00 269.00,288.35 269.00,287.56 C269.00,286.77 269.45,285.84 270.00,285.50 ZM 231.50 347.00 C231.71,346.66 232.16,346.36 232.66,346.18 C233.19,346.15 233.69,346.12 234.18,346.09 C234.60,346.24 234.75,346.60 234.50,347.00 C234.16,347.55 233.21,348.00 232.38,348.00 C231.56,348.00 231.16,347.55 231.50,347.00 Z" fill="rgb(186,178,182)"/>
<path d="M 12.59 469.75 C13.07,471.44 12.82,472.00 11.56,472.00 C10.53,472.00 9.09,470.20 7.82,467.32 C5.44,461.94 6.06,460.00 10.60,458.63 C12.20,458.15 14.77,457.09 16.31,456.28 C17.86,455.48 20.13,455.07 21.36,455.38 C23.71,455.96 27.00,461.61 27.00,465.03 C27.00,468.27 24.22,467.26 22.88,463.53 C21.57,459.93 19.52,458.35 18.44,460.10 C18.09,460.66 18.35,462.44 19.02,464.04 C19.68,465.65 19.97,467.64 19.65,468.47 C18.76,470.78 16.36,469.24 15.34,465.70 C14.81,463.85 13.65,462.36 12.57,462.16 C10.65,461.79 10.66,462.95 12.59,469.75 ZM 7.61 256.28 C8.50,256.11 9.54,256.00 10.55,256.00 C11.59,256.00 12.58,256.14 13.48,256.40 C13.67,256.68 14.12,257.10 14.78,257.56 C17.68,259.59 17.60,261.82 14.60,262.96 C10.82,264.40 10.47,266.00 13.94,266.00 C17.41,266.00 17.95,267.42 15.07,268.96 C12.23,270.48 8.91,270.23 6.83,268.35 C4.52,266.25 4.42,260.30 6.65,257.83 C7.24,257.18 7.58,256.61 7.61,256.28 ZM 39.88 462.37 C37.53,464.02 32.89,464.56 31.67,463.33 C30.39,462.05 31.00,456.94 32.50,456.36 C34.41,455.63 34.45,454.00 32.56,454.00 C30.47,454.00 29.51,451.93 31.12,450.90 C35.62,448.06 40.26,451.06 41.59,457.68 C42.08,460.16 41.75,461.06 39.88,462.37 ZM 80.52 447.99 C76.49,449.52 74.28,449.22 72.04,446.81 C67.80,442.26 70.55,435.00 76.52,435.00 C81.39,435.00 82.35,439.29 78.25,442.74 L 75.50 445.05 L 78.90 444.77 C83.11,444.43 84.20,446.59 80.52,447.99 ZM 113.07 435.96 C110.90,437.13 105.69,437.35 104.67,436.33 C103.46,435.13 103.97,431.27 105.50,430.00 C107.61,428.25 107.36,427.00 104.92,427.00 C102.62,427.00 102.75,425.19 105.15,423.67 C107.83,421.99 111.49,423.70 113.30,427.50 C115.52,432.16 115.45,434.69 113.07,435.96 ZM 48.50 256.62 C46.55,258.05 40.84,258.51 39.67,257.33 C38.45,256.12 38.97,252.27 40.52,250.98 C42.10,249.67 41.70,248.50 39.67,248.50 C37.35,248.50 38.56,245.63 41.18,244.93 C44.85,243.94 47.66,246.13 49.17,251.16 C50.26,254.83 50.20,255.38 48.50,256.62 ZM 55.51 456.41 L 52.71 457.54 C48.99,459.03 47.00,458.82 47.00,456.94 C47.00,456.42 47.67,456.00 48.50,456.00 C51.13,456.00 50.11,453.48 47.00,452.31 C45.00,451.55 44.00,450.48 44.00,449.11 C44.00,446.61 48.34,443.53 50.63,444.41 C52.14,444.99 52.14,445.18 50.66,446.82 C49.15,448.49 49.27,448.71 52.52,450.18 C54.13,450.91 55.50,451.28 55.89,451.13 C56.85,452.75 56.73,454.65 55.51,456.41 ZM 571.28 64.75 C569.15,61.99 564.94,48.66 565.89,47.71 C567.70,45.90 569.78,47.83 571.46,52.87 C572.37,55.63 574.00,59.00 575.06,60.35 C576.13,61.71 576.73,63.54 576.40,64.41 C575.67,66.31 572.64,66.51 571.28,64.75 ZM 67.76 451.25 C67.14,453.14 62.46,453.32 60.67,451.52 C58.76,449.62 55.36,439.30 56.32,438.34 C56.70,437.97 58.01,438.17 59.25,438.78 C60.49,439.39 62.37,440.03 63.43,440.20 C65.23,440.48 65.25,440.61 63.68,442.18 C60.60,445.26 62.18,450.00 66.28,450.00 C67.34,450.00 67.99,450.55 67.76,451.25 ZM 88.27 442.75 C86.99,441.11 85.00,435.17 85.00,432.97 C85.00,430.80 90.64,428.24 92.14,429.74 C92.84,430.44 92.76,431.41 91.89,432.80 C90.93,434.35 90.88,435.69 91.69,438.34 C92.46,440.84 92.45,442.15 91.68,442.92 C90.28,444.32 89.47,444.28 88.27,442.75 ZM 24.40 265.21 C22.56,264.02 19.82,257.30 20.17,254.83 C20.56,252.10 25.62,249.22 27.21,250.81 C27.90,251.50 27.74,252.53 26.71,254.01 C25.35,255.94 25.35,256.58 26.66,259.74 C27.89,262.68 27.92,263.51 26.82,264.61 C26.10,265.33 25.00,265.61 24.40,265.21 ZM 181.08 0.00 C184.74,0.00 185.02,2.69 181.69,5.83 C178.65,8.67 175.49,8.58 172.45,5.55 C169.08,2.17 169.26,0.00 172.92,0.00 C173.47,0.00 174.01,0.07 174.50,0.18 C174.47,0.20 174.44,0.23 174.41,0.25 C174.03,0.64 174.30,1.65 175.01,2.51 C176.62,4.45 178.40,3.94 178.80,1.42 C178.88,0.90 178.93,0.55 178.92,0.34 C179.54,0.13 180.31,0.00 181.08,0.00 ZM 581.77 61.76 C577.96,60.49 575.99,54.19 578.29,50.68 C581.36,46.00 585.82,46.98 584.55,51.16 C584.41,51.01 584.01,51.04 583.32,51.18 C581.12,51.60 580.41,54.58 582.04,56.55 C582.70,57.35 583.64,58.00 584.12,58.00 C584.42,58.00 584.63,57.91 584.77,57.78 C584.87,58.36 584.90,59.03 584.82,59.70 C584.52,62.47 584.31,62.62 581.77,61.76 ZM 164.14 10.66 C163.53,9.93 162.36,7.43 161.54,5.12 C160.24,1.42 160.24,0.85 161.53,0.35 C163.82,-0.53 166.00,0.73 166.00,2.93 C166.00,4.03 166.97,5.82 168.15,6.93 C169.94,8.59 170.09,9.19 169.03,10.47 C167.46,12.35 165.60,12.43 164.14,10.66 ZM 58.40 252.16 C56.99,254.45 54.83,252.26 53.04,246.71 C51.65,242.38 52.34,238.94 54.23,240.83 C55.83,242.43 59.04,251.13 58.40,252.16 ZM 0.04 469.75 L 0.04 468.64 C0.23,464.51 1.03,464.27 3.35,466.83 C5.42,469.12 5.45,471.91 3.44,474.78 C1.34,477.78 0.35,477.58 0.08,473.76 C0.05,472.59 0.03,471.26 0.04,469.75 ZM 123.26 430.75 C122.32,433.51 120.31,431.71 118.54,426.50 C116.63,420.87 116.83,419.34 119.34,420.30 C120.94,420.91 123.92,428.83 123.26,430.75 ZM 194.85 0.06 C195.48,0.02 196.24,0.00 197.16,0.00 C199.20,0.00 200.60,0.22 201.35,0.65 C201.21,0.87 201.04,1.20 200.83,1.64 C199.78,3.81 196.08,6.00 193.45,6.00 C191.26,6.00 191.71,3.31 194.00,2.71 C196.25,2.12 196.58,0.41 194.85,0.06 ZM 528.81 479.91 C528.02,479.94 527.15,479.96 526.16,479.97 C525.58,479.92 525.13,479.82 524.77,479.64 C524.89,479.26 524.91,478.47 524.79,477.29 C524.35,473.14 527.40,473.09 528.82,477.21 C529.58,479.40 529.83,479.67 529.56,478.00 C528.78,473.09 526.17,467.50 524.49,467.16 C526.06,467.48 528.38,472.21 529.70,477.75 C530.04,479.20 529.96,479.73 528.81,479.91 ZM 515.50 479.99 C514.48,479.99 513.55,479.98 512.72,479.97 C511.86,479.93 511.18,479.87 510.66,479.77 C510.99,479.59 511.31,479.31 511.50,479.00 C512.39,477.56 518.74,477.77 519.34,479.25 C519.37,479.33 519.40,479.39 519.43,479.45 C518.79,479.80 517.58,479.95 515.50,479.99 ZM 0.07 273.91 C0.06,273.49 0.04,273.02 0.03,272.51 C4.27,271.00 4.56,272.04 2.80,273.80 C1.31,275.29 0.34,275.31 0.07,273.91 ZM 525.35 470.53 C525.04,471.34 524.43,472.00 524.00,472.00 C522.76,472.00 521.98,469.13 523.04,468.47 C524.51,467.57 525.98,468.88 525.35,470.53 ZM 118.00 415.50 C118.00,416.33 117.32,417.00 116.50,417.00 C115.68,417.00 115.00,416.33 115.00,415.50 C115.00,414.67 115.68,414.00 116.50,414.00 C117.32,414.00 118.00,414.67 118.00,415.50 ZM 53.00 236.50 C53.00,237.32 52.33,238.00 51.50,238.00 C50.67,238.00 50.00,237.32 50.00,236.50 C50.00,235.68 50.67,235.00 51.50,235.00 C52.33,235.00 53.00,235.68 53.00,236.50 ZM 101.30 438.51 C100.96,440.25 98.00,440.24 98.00,438.50 C98.00,437.47 98.66,436.98 99.75,437.19 C100.71,437.38 101.41,437.97 101.30,438.51 ZM 36.00 259.42 C36.00,260.29 35.29,261.00 34.42,261.00 C33.55,261.00 33.01,260.47 33.23,259.81 C33.85,257.96 36.00,257.65 36.00,259.42 ZM 195.02 6.80 C198.27,5.98 201.98,3.52 201.93,1.22 C202.32,2.04 201.46,3.28 199.37,4.93 C198.19,5.85 196.57,6.50 195.02,6.80 ZM 16.32 257.81 C17.57,258.84 18.14,260.19 17.62,261.54 C17.98,260.61 17.30,259.04 16.32,257.81 ZM 3.95 262.04 C3.92,259.98 4.32,258.08 5.20,257.20 C5.26,257.14 5.35,257.07 5.44,257.01 C4.54,258.12 4.02,260.02 3.95,262.04 ZM 54.67 449.71 C54.64,449.69 54.61,449.68 54.57,449.67 C53.79,449.36 53.00,447.85 52.82,446.31 C52.69,445.20 52.47,444.48 52.00,444.00 C52.46,444.44 52.70,445.08 52.82,446.00 C53.00,447.38 53.72,448.95 54.43,449.50 C54.51,449.57 54.59,449.64 54.67,449.71 ZM 519.91 478.97 C519.91,478.91 519.92,478.84 519.92,478.77 C519.99,477.34 518.39,476.56 516.40,476.42 C518.38,476.51 520.00,477.19 520.00,478.52 C520.00,478.69 519.97,478.84 519.91,478.97 ZM 193.06 0.40 C192.29,0.92 191.53,1.88 191.01,2.89 C191.05,2.79 191.10,2.68 191.15,2.57 C191.68,1.40 192.14,0.75 193.06,0.40 ZM 178.36 0.58 C178.27,0.69 178.17,0.84 178.05,1.00 C177.62,1.62 177.33,1.95 177.06,1.99 C177.22,1.94 177.38,1.69 177.58,1.25 C177.70,1.00 177.98,0.77 178.36,0.58 ZM 176.91 1.98 C176.66,1.91 176.41,1.59 176.05,1.03 C175.96,0.88 175.86,0.75 175.76,0.64 C176.08,0.82 176.31,1.03 176.42,1.25 C176.61,1.66 176.76,1.91 176.91,1.98 ZM 583.25 54.09 C583.02,54.77 583.07,55.20 583.40,55.55 C582.95,55.28 582.90,54.88 583.25,54.09 ZM 46.49 458.99 C47.07,459.93 48.61,460.17 50.29,459.83 C48.62,460.21 47.10,459.97 46.49,458.99 Z" fill="rgb(239,238,238)"/>
<path d="M 509.54 478.94 C511.57,475.65 520.07,475.51 519.92,478.77 C519.87,479.81 519.64,480.00 519.34,479.25 C518.74,477.77 512.39,477.56 511.50,479.00 C511.16,479.55 510.43,480.00 509.88,480.00 C509.33,480.00 509.18,479.52 509.54,478.94 ZM 523.44 477.25 C523.11,475.74 522.36,473.24 521.77,471.69 C520.57,468.51 521.71,466.59 524.49,467.16 C526.16,467.49 528.78,473.08 529.56,478.00 C529.83,479.67 529.58,479.40 528.82,477.21 C527.40,473.09 524.35,473.14 524.79,477.29 C525.16,480.82 524.21,480.79 523.44,477.25 ZM 525.35 470.53 C525.98,468.88 524.51,467.57 523.04,468.47 C521.98,469.13 522.76,472.00 524.00,472.00 C524.43,472.00 525.04,471.34 525.35,470.53 ZM 8.61 471.75 C7.82,470.51 6.62,467.60 5.94,465.28 C4.33,459.80 5.16,458.84 13.92,456.03 C21.83,453.48 23.92,454.02 26.65,459.28 L 28.32 462.50 L 29.28 459.65 C29.91,457.76 29.87,456.01 29.15,454.44 C27.73,451.31 29.95,449.00 34.40,449.00 C38.07,449.00 40.92,451.59 42.97,456.78 C44.10,459.65 44.05,460.29 42.49,462.01 C40.28,464.46 34.59,465.59 31.52,464.19 C29.45,463.25 29.11,463.42 28.54,465.68 C27.99,467.88 27.50,468.15 24.97,467.64 C22.68,467.19 21.80,467.50 20.95,469.09 C20.25,470.40 19.06,471.02 17.59,470.83 C16.35,470.66 14.55,471.31 13.59,472.27 C11.30,474.55 10.34,474.45 8.61,471.75 ZM 12.59 469.75 C10.66,462.95 10.65,461.79 12.57,462.16 C13.65,462.36 14.81,463.85 15.34,465.70 C16.36,469.24 18.76,470.78 19.65,468.47 C19.97,467.64 19.68,465.65 19.02,464.04 C18.35,462.44 18.09,460.66 18.44,460.10 C19.52,458.35 21.57,459.93 22.88,463.53 C24.22,467.26 27.00,468.27 27.00,465.03 C27.00,461.61 23.71,455.96 21.36,455.38 C20.13,455.07 17.86,455.48 16.31,456.28 C14.77,457.09 12.20,458.15 10.60,458.63 C6.06,460.00 5.44,461.94 7.82,467.32 C9.09,470.20 10.53,472.00 11.56,472.00 C12.82,472.00 13.07,471.44 12.59,469.75 ZM 39.88 462.37 C41.75,461.06 42.08,460.16 41.59,457.68 C40.26,451.06 35.62,448.06 31.12,450.90 C29.51,451.93 30.47,454.00 32.56,454.00 C34.45,454.00 34.41,455.63 32.50,456.36 C31.00,456.94 30.39,462.05 31.67,463.33 C32.89,464.56 37.53,464.02 39.88,462.37 ZM 46.49 458.99 C46.15,458.44 46.15,457.11 46.48,456.05 C46.91,454.72 46.46,453.78 45.05,453.03 C40.47,450.58 44.35,442.56 49.81,443.19 C51.92,443.43 52.57,444.10 52.82,446.31 C53.00,447.85 53.79,449.36 54.57,449.67 C55.36,449.97 56.00,450.56 56.00,450.99 C56.00,451.41 54.44,451.05 52.52,450.18 C49.27,448.71 49.15,448.49 50.66,446.82 C52.14,445.18 52.14,444.99 50.63,444.41 C48.34,443.53 44.00,446.61 44.00,449.11 C44.00,450.48 45.00,451.55 47.00,452.31 C50.11,453.48 51.13,456.00 48.50,456.00 C47.67,456.00 47.00,456.42 47.00,456.94 C47.00,458.82 48.99,459.03 52.71,457.54 L 56.50 456.01 L 54.14 458.01 C51.62,460.13 47.53,460.66 46.49,458.99 ZM 61.74 453.92 C59.41,452.56 56.21,446.13 55.42,441.24 C54.91,438.02 55.12,437.17 56.56,436.61 C57.54,436.24 58.80,436.40 59.37,436.97 C59.94,437.54 61.45,438.00 62.73,438.00 C65.81,438.00 66.55,440.24 64.49,443.38 C62.47,446.46 63.02,447.55 66.98,448.35 C70.56,449.06 70.90,451.25 67.78,453.44 C65.20,455.25 64.17,455.33 61.74,453.92 ZM 67.76 451.25 C67.99,450.55 67.34,450.00 66.28,450.00 C62.18,450.00 60.60,445.26 63.68,442.18 C65.25,440.61 65.23,440.48 63.43,440.20 C62.37,440.03 60.49,439.39 59.25,438.78 C58.01,438.17 56.70,437.97 56.32,438.34 C55.36,439.30 58.76,449.62 60.67,451.52 C62.46,453.32 67.14,453.14 67.76,451.25 ZM 72.26 448.78 C69.11,447.26 67.66,441.57 69.51,437.99 C71.03,435.05 72.84,434.00 76.39,434.00 C80.06,434.00 82.13,436.33 83.12,441.55 C83.96,446.01 83.84,446.67 81.92,448.25 C79.53,450.20 75.65,450.42 72.26,448.78 ZM 80.52 447.99 C84.20,446.59 83.11,444.43 78.90,444.77 L 75.50 445.05 L 78.25 442.74 C82.35,439.29 81.39,435.00 76.52,435.00 C70.55,435.00 67.80,442.26 72.04,446.81 C74.28,449.22 76.49,449.52 80.52,447.99 ZM 97.96 440.45 C96.42,438.60 97.47,435.95 100.02,435.29 C102.57,434.62 103.69,430.34 102.02,427.66 C100.92,425.90 101.05,425.38 102.98,423.81 C105.82,421.51 110.23,421.48 112.25,423.75 C114.57,426.37 117.00,432.83 116.32,434.60 C115.54,436.65 111.80,438.00 106.90,438.00 C104.40,438.00 102.74,438.52 102.39,439.42 C101.58,441.54 99.31,442.07 97.96,440.45 ZM 101.30 438.51 C101.41,437.97 100.71,437.38 99.75,437.19 C98.66,436.98 98.00,437.47 98.00,438.50 C98.00,440.24 100.96,440.25 101.30,438.51 ZM 113.07 435.96 C115.45,434.69 115.52,432.16 113.30,427.50 C111.49,423.70 107.83,421.99 105.15,423.67 C102.75,425.19 102.62,427.00 104.92,427.00 C107.36,427.00 107.61,428.25 105.50,430.00 C103.97,431.27 103.46,435.13 104.67,436.33 C105.69,437.35 110.90,437.13 113.07,435.96 ZM 117.96 428.42 C116.88,425.90 116.00,423.12 116.00,422.24 C116.00,421.36 115.45,419.12 114.78,417.27 C113.78,414.50 113.81,413.74 114.94,413.04 C117.02,411.75 118.94,412.91 119.65,415.86 C119.99,417.31 120.70,419.04 121.22,419.70 C122.78,421.68 124.96,429.94 124.35,431.52 C123.15,434.65 119.98,433.11 117.96,428.42 ZM 123.26 430.75 C123.92,428.83 120.94,420.91 119.34,420.30 C116.83,419.34 116.63,420.87 118.54,426.50 C120.31,431.71 122.32,433.51 123.26,430.75 ZM 118.00 415.50 C118.00,414.67 117.32,414.00 116.50,414.00 C115.68,414.00 115.00,414.67 115.00,415.50 C115.00,416.33 115.68,417.00 116.50,417.00 C117.32,417.00 118.00,416.33 118.00,415.50 ZM 314.00 419.39 C314.00,418.07 314.68,417.90 317.75,418.47 C323.54,419.53 324.09,421.00 318.70,421.00 C315.04,421.00 314.00,420.64 314.00,419.39 ZM 329.55 420.12 C330.07,419.63 332.63,418.93 335.24,418.56 C339.29,417.98 339.90,418.11 339.38,419.44 C338.95,420.57 337.38,421.00 333.69,421.00 C330.70,421.00 328.99,420.64 329.55,420.12 ZM 343.27 419.67 C343.75,418.24 345.79,417.66 358.00,415.47 C368.95,413.50 391.03,406.52 399.03,402.51 C411.67,396.17 426.29,386.52 436.54,377.76 C442.57,372.60 448.31,367.29 449.30,365.95 C450.28,364.60 450.84,364.02 450.54,364.66 C450.24,365.31 450.48,365.99 451.09,366.20 C453.96,367.15 427.61,389.12 414.50,396.71 C398.71,405.84 377.04,414.84 368.23,415.92 C367.83,415.97 366.01,416.50 364.18,417.10 C362.36,417.71 360.00,417.97 358.93,417.69 C357.87,417.42 356.73,417.62 356.40,418.16 C356.07,418.69 354.61,419.04 353.15,418.92 C351.69,418.81 349.83,418.96 349.00,419.27 C345.31,420.63 342.90,420.80 343.27,419.67 ZM 300.34 419.28 C298.59,419.06 296.90,418.18 296.57,417.31 C296.07,416.02 296.52,415.85 299.11,416.37 C300.84,416.72 303.54,417.00 305.12,417.00 C307.01,417.00 308.00,417.51 308.00,418.50 C308.00,420.01 306.95,420.11 300.34,419.28 ZM 283.00 415.56 C244.26,405.28 207.99,379.72 184.65,346.25 C181.34,341.51 181.18,341.00 183.01,341.00 C184.27,341.00 185.50,342.05 186.24,343.75 C188.57,349.10 202.42,364.79 214.92,376.23 C227.60,387.84 250.91,402.00 267.00,407.88 C272.74,409.98 288.69,414.52 293.00,415.28 L 295.50 415.73 L 293.00 415.93 C290.69,416.13 290.65,416.20 292.50,417.00 C296.10,418.55 291.78,417.89 283.00,415.56 ZM 459.30 354.25 C473.90,335.95 483.86,315.72 490.46,291.00 C491.85,285.77 493.00,280.54 493.00,279.37 C493.00,278.20 493.74,276.63 494.65,275.87 C496.16,274.62 496.24,274.93 495.59,279.50 C493.87,291.64 487.54,310.53 480.19,325.52 C472.60,340.99 458.63,361.00 455.41,361.00 C454.46,361.00 455.89,358.53 459.30,354.25 ZM 162.75 301.34 C161.55,299.21 157.77,285.14 157.31,281.06 C156.43,273.22 156.05,270.59 155.39,267.74 C154.87,265.46 155.05,265.08 156.38,265.59 C157.27,265.93 158.00,267.24 158.00,268.50 C158.00,271.86 161.85,290.49 163.63,295.72 C164.62,298.63 164.82,300.58 164.19,301.21 C163.66,301.74 163.01,301.80 162.75,301.34 ZM 494.55 270.75 C495.71,266.88 497.00,266.38 497.00,269.80 C497.00,272.04 496.53,273.00 495.43,273.00 C494.27,273.00 494.04,272.42 494.55,270.75 ZM 6.12 269.12 C2.63,265.63 3.54,256.00 7.35,256.00 C7.88,256.00 7.57,256.82 6.65,257.83 C4.42,260.30 4.52,266.25 6.83,268.35 C8.91,270.23 12.23,270.48 15.07,268.96 C17.95,267.42 17.41,266.00 13.94,266.00 C10.47,266.00 10.82,264.40 14.60,262.96 C17.60,261.82 17.68,259.59 14.78,257.56 C13.56,256.70 13.04,256.00 13.62,256.00 C15.48,256.00 18.27,259.85 17.62,261.54 C17.29,262.42 17.50,264.06 18.10,265.19 C19.60,267.98 17.46,270.00 12.25,270.69 C9.03,271.12 7.81,270.81 6.12,269.12 ZM 495.65 259.21 C496.51,252.52 498.00,251.56 498.00,257.69 C498.00,261.26 497.56,262.96 496.52,263.35 C495.30,263.82 495.15,263.10 495.65,259.21 ZM 32.00 259.98 C32.00,258.76 32.95,257.59 34.37,257.05 C37.22,255.97 38.49,251.79 36.89,248.80 C35.91,246.96 36.08,246.36 37.98,244.82 C42.24,241.36 47.13,242.99 49.50,248.66 C52.68,256.26 50.53,259.37 42.21,259.24 C39.35,259.20 37.68,259.66 37.33,260.59 C37.03,261.37 35.71,262.00 34.39,262.00 C32.66,262.00 32.00,261.44 32.00,259.98 ZM 36.00 259.42 C36.00,257.65 33.85,257.96 33.23,259.81 C33.01,260.47 33.55,261.00 34.42,261.00 C35.29,261.00 36.00,260.29 36.00,259.42 ZM 48.50 256.62 C50.20,255.38 50.26,254.83 49.17,251.16 C47.66,246.13 44.85,243.94 41.18,244.93 C38.56,245.63 37.35,248.50 39.67,248.50 C41.70,248.50 42.10,249.67 40.52,250.98 C38.97,252.27 38.45,256.12 39.67,257.33 C40.84,258.51 46.55,258.05 48.50,256.62 ZM 154.47 252.60 C154.10,249.64 154.10,245.81 154.48,244.10 C155.75,238.30 157.00,240.97 157.00,249.50 C157.00,259.02 155.50,260.86 154.47,252.60 ZM 53.06 249.65 C50.79,244.34 49.01,238.23 49.01,235.68 C49.00,234.40 49.62,233.96 51.07,234.18 C52.56,234.41 54.00,236.44 56.15,241.32 C60.00,250.09 60.29,253.39 57.24,253.82 C55.41,254.08 54.63,253.31 53.06,249.65 ZM 58.40 252.16 C59.04,251.13 55.83,242.43 54.23,240.83 C52.34,238.94 51.65,242.38 53.04,246.71 C54.83,252.26 56.99,254.45 58.40,252.16 ZM 53.00 236.50 C53.00,235.68 52.33,235.00 51.50,235.00 C50.67,235.00 50.00,235.68 50.00,236.50 C50.00,237.32 50.67,238.00 51.50,238.00 C52.33,238.00 53.00,237.32 53.00,236.50 ZM 496.65 244.25 C496.39,243.29 495.89,240.82 495.54,238.77 C495.02,235.66 495.17,235.13 496.46,235.62 C497.56,236.04 498.00,237.62 498.00,241.11 C498.00,246.14 497.50,247.32 496.65,244.25 ZM 495.13 229.25 C494.56,228.19 494.14,226.46 494.19,225.41 C494.24,224.36 493.94,222.26 493.53,220.74 C492.93,218.53 493.07,218.09 494.26,218.55 C495.20,218.91 495.98,221.16 496.39,224.70 C497.11,230.81 496.72,232.22 495.13,229.25 ZM 156.48 223.26 C156.86,221.74 157.35,218.70 157.57,216.50 C157.79,214.30 158.38,211.38 158.87,210.00 C159.36,208.62 160.33,205.48 161.01,203.00 C164.04,191.98 165.55,187.86 170.18,178.00 C188.07,139.91 216.58,111.22 254.00,93.68 C264.88,88.58 281.94,82.65 290.00,81.17 C301.91,78.98 302.00,78.97 302.00,80.53 C302.00,81.39 301.07,82.00 299.75,82.00 C295.39,82.01 273.71,88.04 264.16,91.90 C250.45,97.45 245.04,100.30 232.00,108.91 C218.57,117.77 199.76,135.70 190.15,148.79 C175.44,168.83 164.79,192.82 160.21,216.24 C159.21,221.35 157.94,225.19 157.14,225.50 C156.10,225.90 155.94,225.37 156.48,223.26 ZM 491.61 211.95 C491.25,209.72 489.62,203.71 487.98,198.60 C484.87,188.88 484.51,187.00 485.75,187.00 C486.89,187.01 489.66,194.43 492.47,205.00 C495.42,216.10 495.41,216.00 493.63,216.00 C492.80,216.00 492.00,214.40 491.61,211.95 ZM 445.99 129.49 C443.17,126.58 442.09,123.96 443.75,124.03 C444.16,124.05 446.50,126.05 448.94,128.48 C452.72,132.25 453.05,132.88 451.18,132.74 C449.97,132.65 447.63,131.18 445.99,129.49 ZM 436.00 119.83 C416.60,103.39 386.27,88.44 363.18,83.94 C359.51,83.23 357.36,82.39 358.07,81.96 C358.93,81.43 358.73,81.06 357.40,80.72 C355.62,80.26 355.62,80.22 357.50,80.12 C360.27,79.96 375.82,84.22 385.84,87.88 C402.33,93.90 425.09,107.25 437.32,118.08 C442.21,122.40 440.97,124.04 436.00,119.83 ZM 305.00 80.11 C305.00,79.12 307.41,78.00 309.55,78.00 C310.37,78.00 310.70,78.61 310.36,79.50 C309.75,81.09 305.00,81.63 305.00,80.11 ZM 342.59 79.38 C342.10,78.09 342.43,77.88 344.24,78.37 C345.48,78.70 347.06,78.98 347.75,78.99 C348.44,78.99 349.00,79.45 349.00,80.00 C349.00,81.70 343.27,81.15 342.59,79.38 ZM 319.00 78.50 C320.31,76.92 327.17,76.48 332.86,77.62 C338.48,78.75 335.04,80.00 326.32,80.00 C318.82,80.00 317.91,79.81 319.00,78.50 ZM 582.04 56.55 C580.41,54.58 581.12,51.60 583.32,51.18 C584.92,50.87 584.98,51.08 583.81,53.05 C582.77,54.80 582.76,55.36 583.75,55.71 C585.17,56.23 585.46,58.00 584.12,58.00 C583.64,58.00 582.70,57.35 582.04,56.55 ZM 190.55 6.07 C189.56,4.48 192.23,0.00 194.16,0.00 C196.63,0.00 196.51,2.05 194.00,2.71 C191.71,3.31 191.26,6.00 193.45,6.00 C196.08,6.00 199.78,3.81 200.83,1.64 C201.64,-0.03 201.88,-0.13 201.93,1.18 C202.08,4.88 192.38,9.05 190.55,6.07 ZM 175.01 2.51 C174.30,1.65 174.03,0.64 174.41,0.25 C174.80,-0.13 175.53,0.22 176.05,1.03 C176.88,2.32 177.13,2.32 178.05,1.00 C178.93,-0.25 179.06,-0.19 178.80,1.42 C178.40,3.94 176.62,4.45 175.01,2.51 Z" fill="rgb(249,247,248)"/>
</g>
</svg>